<?xml version="1.0" encoding="UTF-8" standalone="no"?>
<svg
   xmlns:dc="http://purl.org/dc/elements/1.1/"
   xmlns:cc="http://creativecommons.org/ns#"
   xmlns:rdf="http://www.w3.org/1999/02/22-rdf-syntax-ns#"
   xmlns:svg="http://www.w3.org/2000/svg"
   xmlns="http://www.w3.org/2000/svg"
   viewBox="0 0 878.69202 605.96936"
   height="605.96936"
   width="878.69202"
   xml:space="preserve"
   id="svg2"
   version="1.1"><metadata
     id="metadata8"><rdf:RDF><cc:Work
         rdf:about=""><dc:format>image/svg+xml</dc:format><dc:type
           rdf:resource="http://purl.org/dc/dcmitype/StillImage" /></cc:Work></rdf:RDF></metadata><defs
     id="defs6"><clipPath
       id="clipPath26"
       clipPathUnits="userSpaceOnUse"><path
         id="path24"
         d="M 0,454.477 H 659.019 V 0 H 0 Z" /></clipPath><clipPath
       id="clipPath70"
       clipPathUnits="userSpaceOnUse"><path
         id="path68"
         d="M 0,454.477 H 659.019 V 0 H 0 Z" /></clipPath><clipPath
       id="clipPath82"
       clipPathUnits="userSpaceOnUse"><path
         id="path80"
         d="M 0,454.477 H 659.019 V 0 H 0 Z" /></clipPath><clipPath
       id="clipPath148"
       clipPathUnits="userSpaceOnUse"><path
         id="path146"
         d="m 472.854,255.621 h 42.165 v -38.943 h -42.165 z" /></clipPath><clipPath
       id="clipPath176"
       clipPathUnits="userSpaceOnUse"><path
         id="path174"
         d="M 397.53,394.656 H 577.038 V 253.985 H 397.53 Z" /></clipPath><clipPath
       id="clipPath402"
       clipPathUnits="userSpaceOnUse"><path
         id="path400"
         d="m 423.522,152.653 h 18.32 V 76.7748 h -18.32 z" /></clipPath><clipPath
       id="clipPath430"
       clipPathUnits="userSpaceOnUse"><path
         id="path428"
         d="M 428.587,152.653 H 577.223 V 76.7492 H 428.587 Z" /></clipPath><clipPath
       id="clipPath446"
       clipPathUnits="userSpaceOnUse"><path
         id="path444"
         d="M 0,454.477 H 659.019 V 0 H 0 Z" /></clipPath><clipPath
       id="clipPath482"
       clipPathUnits="userSpaceOnUse"><path
         id="path480"
         d="m 269.398,187.179 h 16.454 v -62.566 h -16.454 z" /></clipPath></defs><g
     transform="matrix(1.3333333,0,0,-1.3333333,0,605.96933)"
     id="g10"><path
       id="path12"
       style="fill:#f2c04e;fill-opacity:1;fill-rule:nonzero;stroke:none"
       d="M 554.135,178.05 H 433.927 v 31.691 h 120.208 z" /><path
       id="path14"
       style="fill:#f2c04e;fill-opacity:1;fill-rule:nonzero;stroke:none"
       d="M 548.534,99.059 H 441.843 V 172.8 h 106.691 z" /><path
       id="path16"
       style="fill:#f2c04e;fill-opacity:1;fill-rule:nonzero;stroke:none"
       d="M 580.969,152.653 H 410.283 v 27.041 h 170.686 z" /><path
       id="path18"
       style="fill:#f2c04e;fill-opacity:1;fill-rule:nonzero;stroke:none"
       d="M 580.969,181.852 H 567.56 v -2.157 h 13.409 z" /><g
       id="g20"><g
         clip-path="url(#clipPath26)"
         id="g22"><g
           transform="translate(454.5952,180.4356)"
           id="g28"><path
             id="path30"
             style="fill:#f2c04e;fill-opacity:1;fill-rule:nonzero;stroke:none"
             d="m 0,0 c -8.418,0 -15.243,6.824 -15.243,15.242 0,6.154 3.653,11.442 8.902,13.849 -2.806,0.902 -5.796,1.394 -8.902,1.394 -16.054,0 -29.069,-13.014 -29.069,-29.069 0,-16.055 13.015,-29.069 29.069,-29.069 15.58,0 28.295,12.257 29.034,27.653 z" /></g><g
           transform="translate(433.5005,197.6875)"
           id="g32"><path
             id="path34"
             style="fill:none;stroke:#f3d17d;stroke-width:7;stroke-linecap:round;stroke-linejoin:round;stroke-miterlimit:10;stroke-dasharray:none;stroke-opacity:1"
             d="M 0,0 C -7.504,0.138 -13.7,-5.835 -13.837,-13.339 V -31.674" /></g><g
           transform="translate(536.6567,180.4356)"
           id="g36"><path
             id="path38"
             style="fill:#f2c04e;fill-opacity:1;fill-rule:nonzero;stroke:none"
             d="m 0,0 c 8.418,0 15.243,6.824 15.243,15.242 0,6.154 -3.653,11.442 -8.902,13.849 2.806,0.902 5.796,1.394 8.902,1.394 16.054,0 29.069,-13.014 29.069,-29.069 0,-16.055 -13.015,-29.069 -29.069,-29.069 -15.58,0 -28.295,12.257 -29.034,27.653 z" /></g><g
           transform="translate(455.6826,209.7413)"
           id="g40"><path
             id="path42"
             style="fill:#e9b49a;fill-opacity:1;fill-rule:nonzero;stroke:none"
             d="m 0,0 c 3.629,-17.164 18.861,-30.047 37.105,-30.047 18.245,0 33.476,12.883 37.106,30.047 z" /></g><g
           transform="translate(541.6147,163.8663)"
           id="g44"><path
             id="path46"
             style="fill:#ea9431;fill-opacity:1;fill-rule:nonzero;stroke:none"
             d="m 0,0 v 0 -55.734 h -10.015 v 45.72 C -10.015,-4.483 -5.531,0 0,0" /></g><g
           transform="translate(541.6147,170.3663)"
           id="g48"><path
             id="path50"
             style="fill:#ea9431;fill-opacity:1;fill-rule:nonzero;stroke:none"
             d="m 0,0 v 0 -62.234 h -10.015 v 52.22 C -10.015,-4.483 -5.531,0 0,0" /></g><g
           transform="translate(441.8423,170.3663)"
           id="g52"><path
             id="path54"
             style="fill:#ea9431;fill-opacity:1;fill-rule:nonzero;stroke:none"
             d="m 0,0 v 0 -17.713 h -10.015 v 7.699 C -10.015,-4.483 -5.531,0 0,0" /></g><g
           transform="translate(554.4102,209.7413)"
           id="g56"><path
             id="path58"
             style="fill:#ea9431;fill-opacity:1;fill-rule:nonzero;stroke:none"
             d="M 0,0 H -9.374 C 5.293,0 17.184,-11.891 17.184,-26.559 v -30.529 h 9.375 v 30.529 C 26.559,-11.891 14.668,0 0,0" /></g><g
           transform="translate(529.8931,209.7413)"
           id="g60"><path
             id="path62"
             style="fill:#ea9431;fill-opacity:1;fill-rule:nonzero;stroke:none"
             d="m 0,0 c -3.34,-15.795 -16.507,-27.955 -32.804,-29.796 1.413,-0.16 2.846,-0.251 4.302,-0.251 18.245,0 33.476,12.883 37.106,30.047 z" /></g></g></g><g
       id="g64"><g
         clip-path="url(#clipPath70)"
         id="g66"><g
           transform="translate(589.1782,62.0723)"
           id="g72"><path
             id="path74"
             style="fill:#0c171c;fill-opacity:1;fill-rule:nonzero;stroke:none"
             d="m 0,0 h -497.245 c -4.036,0 -7.338,3.303 -7.338,7.339 0,4.036 3.302,7.338 7.338,7.338 H 0 c 4.036,0 7.338,-3.302 7.338,-7.338 C 7.338,3.303 4.036,0 0,0" /></g></g></g><g
       id="g76"><g
         clip-path="url(#clipPath82)"
         id="g78"><g
           transform="translate(562.8721,231.167)"
           id="g84"><path
             id="path86"
             style="fill:#162831;fill-opacity:1;fill-rule:nonzero;stroke:none"
             d="m 0,0 c 0.86,0.354 1.677,0.79 2.454,1.283 1.313,0.505 2.733,0.792 4.223,0.792 0.72,0 1.422,-0.074 2.106,-0.198 -0.812,0.942 -1.739,1.779 -2.744,2.514 2.375,2.781 3.816,6.382 3.816,10.326 0,8.793 -7.127,15.92 -15.919,15.92 -1.71,0 -3.35,-0.283 -4.891,-0.785 0.206,2.064 0.315,4.158 0.315,6.276 0,34.477 -27.95,62.428 -62.428,62.428 -34.477,0 -62.427,-27.951 -62.427,-62.428 0,-8.152 1.579,-15.931 4.421,-23.07 -1.963,-0.216 -3.838,-0.723 -5.581,-1.478 0.474,1.517 0.73,3.129 0.73,4.801 0,8.887 -7.204,16.091 -16.09,16.091 -8.887,0 -16.09,-7.204 -16.09,-16.091 0,-8.517 6.622,-15.469 14.995,-16.034 0,0 0.995,-0.463 2.139,-1.321 -1.328,-2.341 -3.839,-3.924 -6.724,-3.924 -2.668,0 -5.02,1.351 -6.409,3.407 l 0.037,-0.104 c -0.001,0.002 -0.002,0.003 -0.003,0.005 0.012,-5.918 4.717,-10.722 10.59,-10.917 -0.963,-3.01 -0.568,-6.416 1.388,-9.202 2.174,-3.095 5.722,-4.635 9.239,-4.408 0.022,-0.012 0.042,-0.028 0.065,-0.039 l -0.061,0.039 c 0.028,0.002 0.055,-10e-4 0.081,0.001 -0.526,0.277 -1.023,0.617 -1.493,0.998 -1.233,1.155 -2.007,2.795 -2.007,4.618 0,1.339 0.421,2.576 1.13,3.6 3.471,-5.262 9.418,-8.744 16.193,-8.744 8.155,0 15.124,5.036 17.997,12.163 10.507,-8.036 23.632,-12.819 37.88,-12.819 10.64,0 20.653,2.669 29.42,7.363 2.362,-2.505 5.696,-4.084 9.411,-4.084 5.995,0 11.024,4.077 12.505,9.605 0.806,0.558 1.583,1.155 2.328,1.789 1.383,-7.545 7.979,-13.267 15.924,-13.267 3.73,0 7.157,1.274 9.896,3.394 -4.422,0.097 -8.242,2.624 -10.179,6.299 1.197,-0.641 2.563,-1.006 4.015,-1.006 4.712,0 8.531,3.819 8.531,8.531 0,0.678 -0.088,1.335 -0.237,1.967 -1.072,-2.164 -3.297,-3.656 -5.877,-3.656 -3.146,0 -5.772,2.215 -6.41,5.17 C -2.848,-2.514 -1.56,-1.074 0,0" /></g><g
           transform="translate(403.3813,244.9854)"
           id="g88"><path
             id="path90"
             style="fill:none;stroke:#1a2f38;stroke-width:5;stroke-linecap:round;stroke-linejoin:miter;stroke-miterlimit:10;stroke-dasharray:none;stroke-opacity:1"
             d="M 0,0 C -2.253,3.931 -0.894,8.943 3.037,11.196" /></g><g
           transform="translate(561.5078,254.5957)"
           id="g92"><path
             id="path94"
             style="fill:none;stroke:#1a2f38;stroke-width:5;stroke-linecap:round;stroke-linejoin:miter;stroke-miterlimit:10;stroke-dasharray:none;stroke-opacity:1"
             d="M 0,0 C 3.63,-2.711 4.375,-7.851 1.664,-11.48" /></g><g
           transform="translate(409.7617,231.5137)"
           id="g96"><path
             id="path98"
             style="fill:#0c171c;fill-opacity:1;fill-rule:nonzero;stroke:none"
             d="M 0,0 C 0,0 0.859,-0.401 1.898,-1.145 2.752,-0.647 3.522,-0.022 4.183,0.704 2.551,2.797 0,3.983 0,3.983 -7.71,4.504 -13.92,10.444 -14.858,18.03 -14.94,17.375 -14.995,16.712 -14.995,16.034 -14.995,7.518 -8.373,0.565 0,0" /></g><g
           transform="translate(426.9263,247.0069)"
           id="g100"><path
             id="path102"
             style="fill:#0c171c;fill-opacity:1;fill-rule:nonzero;stroke:none"
             d="m 0,0 c 0.006,0.181 0.021,0.359 0.021,0.541 0,0.673 -0.055,1.332 -0.135,1.982 C -0.234,1.562 -0.428,0.624 -0.709,-0.276 -0.477,-0.176 -0.237,-0.092 0,0" /></g><g
           transform="translate(552.1758,265.0752)"
           id="g104"><path
             id="path106"
             style="fill:#0c171c;fill-opacity:1;fill-rule:nonzero;stroke:none"
             d="m 0,0 c 0.026,0.738 0.056,1.476 0.056,2.22 0,0.668 -0.03,1.329 -0.051,1.991 C -0.041,2.771 -0.117,1.34 -0.258,-0.073 -0.174,-0.046 -0.085,-0.026 0,0" /></g><g
           transform="translate(431.7979,248.2081)"
           id="g108"><path
             id="path110"
             style="fill:#0c171c;fill-opacity:1;fill-rule:nonzero;stroke:none"
             d="M 0,0 C -2.604,6.541 -4.131,13.623 -4.372,21.033 -4.392,20.386 -4.421,19.74 -4.421,19.087 -4.421,12.351 -3.328,5.876 -1.35,-0.2 -0.905,-0.119 -0.455,-0.05 0,0" /></g><g
           transform="translate(412.9062,221.8409)"
           id="g112"><path
             id="path114"
             style="fill:#0c171c;fill-opacity:1;fill-rule:nonzero;stroke:none"
             d="m 0,0 c -6,-0.717 -10.234,2.76 -12.148,5.513 -0.757,0.639 -1.427,1.381 -1.956,2.223 0.012,-5.76 4.474,-10.452 10.127,-10.879 3.102,0 3.57,1.873 3.977,3.143" /></g><g
           transform="translate(568.9106,239.5411)"
           id="g116"><path
             id="path118"
             style="fill:#0c171c;fill-opacity:1;fill-rule:nonzero;stroke:none"
             d="m 0,0 c -1.417,-1.605 -2.635,-2.45 -3.584,-3.107 -0.445,-0.308 4.49,1.058 4.796,0.763 1.721,2.238 2.605,5.837 2.605,8.687 0,0.678 -0.056,1.342 -0.139,1.998 C 3.282,5.18 2.006,2.273 0,0" /></g><g
           transform="translate(568.9106,235.5577)"
           id="g120"><path
             id="path122"
             style="fill:#0c171c;fill-opacity:1;fill-rule:nonzero;stroke:none"
             d="m 0,0 c 0.441,0.517 0.838,1.07 1.212,1.64 -0.191,0.01 -0.38,0.028 -0.573,0.028 -1.491,0 -2.911,-0.287 -4.223,-0.792 -0.777,-0.493 -1.594,-0.929 -2.455,-1.283 -1.56,-1.074 -2.847,-2.514 -3.741,-4.196 0.188,-0.87 0.565,-1.663 1.06,-2.367 0.757,0.991 1.652,1.87 2.681,2.579 0.861,0.355 1.678,0.79 2.455,1.284 1.312,0.504 2.732,0.792 4.223,0.792 0.719,0 1.421,-0.075 2.105,-0.199 C 1.932,-1.571 1.006,-0.734 0,0" /></g><g
           transform="translate(559.3916,210.2569)"
           id="g124"><path
             id="path126"
             style="fill:#0c171c;fill-opacity:1;fill-rule:nonzero;stroke:none"
             d="m 0,0 c -7.944,0 -14.541,5.722 -15.923,13.267 -0.746,-0.634 -1.523,-1.232 -2.329,-1.789 -1.48,-5.529 -6.51,-9.605 -12.504,-9.605 -3.715,0 -7.05,1.578 -9.411,4.083 -8.767,-4.693 -18.781,-7.361 -29.42,-7.361 -14.248,0 -27.373,4.782 -37.88,12.817 -2.874,-7.127 -9.843,-12.162 -17.998,-12.162 -7.935,0 -14.748,4.769 -17.758,11.59 -0.907,-1.856 -1.262,-5.912 0.603,-8.986 0.156,0.698 0.385,1.386 0.963,2.156 4.14,-6.082 9.672,-8.739 16.192,-8.743 8.155,-0.006 15.124,5.035 17.998,12.162 10.507,-8.035 23.632,-12.819 37.88,-12.819 10.639,0 20.653,2.669 29.42,7.363 2.361,-2.505 5.696,-4.083 9.411,-4.083 5.994,0 11.024,4.076 12.504,9.604 0.806,0.558 1.583,1.155 2.329,1.789 C -14.541,1.738 -7.944,-3.983 0,-3.983 c 3.731,0 7.158,1.273 9.896,3.393 C 8.041,-0.55 6.293,-0.076 4.744,0.727 3.243,0.263 1.654,0 0,0" /></g><g
           transform="translate(417.3706,207.6543)"
           id="g128"><path
             id="path130"
             style="fill:#0c171c;fill-opacity:1;fill-rule:nonzero;stroke:none"
             d="M 0,0 C -0.38,0.541 -0.621,1.374 -0.697,2.077 -2.873,2.187 -5.265,3.9 -6.59,5.787 -7.467,7.036 -8.014,8.412 -8.282,9.818 -8.811,7.124 -8.293,4.229 -6.59,1.804 -4.399,-1.316 -0.811,-2.861 2.734,-2.604 1.494,-1.951 0.86,-1.226 0,0" /></g><g
           transform="translate(571.3955,225.42)"
           id="g132"><path
             id="path134"
             style="fill:#0c171c;fill-opacity:1;fill-rule:nonzero;stroke:none"
             d="m 0,0 c -0.921,-3.717 -3.953,-6.626 -7.927,-7.1 -3.666,-0.437 -8.136,1.275 -9.333,1.915 1.108,-2.102 5.054,-5.665 9.909,-5.223 4.278,0.459 7.61,4.079 7.61,8.479 0,0.678 -0.087,1.335 -0.237,1.967 C 0.016,0.025 0.007,0.014 0,0" /></g><path
           id="path136"
           style="fill:#e9b49a;fill-opacity:1;fill-rule:nonzero;stroke:none"
           d="m 515.02,214.195 h -42.166 v 42.426 h 42.166 z" /><g
           transform="translate(515.0195,214.5801)"
           id="g138"><path
             id="path140"
             style="fill:#e9b49a;fill-opacity:1;fill-rule:nonzero;stroke:none"
             d="m 0,0 c 0,-11.644 -9.439,-21.082 -21.083,-21.082 -11.644,0 -21.083,9.438 -21.083,21.082 0,11.644 9.439,21.083 21.083,21.083 C -9.439,21.083 0,11.644 0,0" /></g><g
           id="g142"><g
             id="g144" /><g
             id="g156"><g
               style="opacity:0.33999604"
               id="g154"
               clip-path="url(#clipPath148)"><g
                 id="g152"
                 transform="translate(472.854,218.0303)"><path
                   id="path150"
                   style="fill:#d98480;fill-opacity:1;fill-rule:nonzero;stroke:none"
                   d="m 0,0 c 4.246,-0.884 8.643,-1.353 13.15,-1.353 10.445,0 20.298,2.51 29.016,6.935 V 37.59 H 0 Z" /></g></g></g></g><g
           transform="translate(552.7563,295.583)"
           id="g158"><path
             id="path160"
             style="fill:#eabea3;fill-opacity:1;fill-rule:nonzero;stroke:none"
             d="m 0,0 c 0,-35.464 -28.749,-64.213 -64.213,-64.213 -35.464,0 -64.213,28.749 -64.213,64.213 0,35.464 28.749,64.213 64.213,64.213 C -28.749,64.213 0,35.464 0,0" /></g><g
           transform="translate(550.2173,285.417)"
           id="g162"><path
             id="path164"
             style="fill:#eabea3;fill-opacity:1;fill-rule:nonzero;stroke:none"
             d="m 0,0 c 0,-35.464 -28.749,-64.213 -64.213,-64.213 -35.463,0 -64.213,28.749 -64.213,64.213 0,35.464 28.75,64.213 64.213,64.213 C -28.749,64.213 0,35.464 0,0" /></g><g
           transform="translate(524.6821,336.6709)"
           id="g166"><path
             id="path168"
             style="fill:#e8b39e;fill-opacity:1;fill-rule:nonzero;stroke:none"
             d="m 0,0 c 12.79,-11.738 20.811,-28.588 20.811,-47.316 0,-35.464 -28.749,-64.213 -64.213,-64.213 -14.525,0 -27.919,4.828 -38.677,12.96 11.43,-10.491 26.665,-16.898 43.401,-16.898 35.464,0 64.213,28.749 64.213,64.213 C 25.535,-30.314 15.509,-11.723 0,0" /></g><g
           id="g170"><g
             id="g172" /><g
             id="g184"><g
               style="opacity:0.14999402"
               id="g182"
               clip-path="url(#clipPath176)"><g
                 id="g180"
                 transform="translate(565.4014,322.6866)"><path
                   id="path178"
                   style="fill:#1a2f38;fill-opacity:1;fill-rule:nonzero;stroke:none"
                   d="m 0,0 c -3.853,40.383 -37.857,71.969 -79.249,71.969 -42.697,0 -77.538,-33.609 -79.527,-75.813 -4.22,-6.342 -7.338,-13.476 -9.096,-21.13 10.714,-17.473 27.621,-31.545 48.116,-39.924 -1.021,7.559 -5.506,14.018 -11.802,17.734 1.937,0.939 3.743,2.103 5.404,3.439 0.059,0.048 0.118,0.095 0.176,0.143 0.346,0.282 0.685,0.572 1.017,0.87 0.057,0.052 0.113,0.104 0.169,0.155 1.38,1.26 2.633,2.653 3.743,4.161 0.087,0.118 0.176,0.234 0.261,0.353 0.208,0.293 0.409,0.591 0.607,0.893 0.113,0.171 0.225,0.344 0.334,0.519 0.178,0.283 0.351,0.568 0.518,0.857 0.121,0.208 0.235,0.419 0.35,0.629 0.149,0.275 0.3,0.547 0.44,0.827 0.136,0.27 0.262,0.547 0.39,0.824 0.155,0.335 0.307,0.672 0.449,1.014 0.163,0.391 0.323,0.786 0.469,1.186 0.078,0.215 0.146,0.434 0.219,0.65 0.113,0.335 0.223,0.671 0.324,1.012 0.067,0.227 0.128,0.455 0.189,0.684 0.093,0.345 0.18,0.693 0.259,1.044 0.051,0.221 0.101,0.443 0.146,0.666 0.078,0.386 0.145,0.777 0.208,1.17 0.03,0.19 0.065,0.38 0.091,0.572 0.081,0.586 0.149,1.176 0.193,1.772 v 0.002 c 0,0 -0.012,0.084 -0.031,0.232 -0.001,0.006 -0.002,0.014 -0.003,0.021 -0.01,0.074 -0.022,0.162 -0.035,0.267 v 0.001 c -0.014,0.107 -0.03,0.229 -0.047,0.363 0,0.005 -10e-4,0.011 -0.002,0.017 -0.051,0.411 -0.114,0.937 -0.178,1.528 -0.001,0.002 -0.001,0.005 -0.001,0.007 -0.022,0.198 -0.043,0.403 -0.065,0.613 -0.14,1.375 -0.266,2.965 -0.266,4.214 0,1.03 0.053,2.047 0.134,3.056 0.049,0.598 0.112,1.194 0.188,1.784 l 0.001,0.012 c 0.077,0.588 0.167,1.172 0.27,1.753 0.001,0.003 0.001,0.007 0.002,0.011 1.445,8.092 5.492,15.28 11.242,20.674 0.065,0.062 0.129,0.125 0.195,0.186 0.323,0.299 0.656,0.59 0.991,0.879 0.11,0.094 0.218,0.191 0.33,0.285 0.308,0.259 0.624,0.51 0.94,0.759 0.146,0.116 0.29,0.232 0.437,0.344 0.299,0.229 0.604,0.449 0.911,0.669 0.172,0.124 0.342,0.247 0.516,0.368 0.294,0.203 0.593,0.401 0.893,0.595 0.195,0.127 0.39,0.254 0.587,0.377 0.289,0.181 0.582,0.355 0.876,0.528 0.216,0.127 0.433,0.252 0.652,0.375 0.286,0.16 0.575,0.316 0.865,0.469 0.235,0.123 0.471,0.244 0.709,0.363 0.283,0.141 0.569,0.28 0.856,0.414 0.253,0.118 0.508,0.233 0.763,0.345 0.281,0.124 0.563,0.245 0.848,0.362 0.269,0.111 0.54,0.216 0.812,0.321 0.279,0.107 0.559,0.214 0.842,0.314 0.284,0.101 0.572,0.196 0.859,0.29 0.277,0.092 0.553,0.183 0.833,0.268 0.301,0.091 0.604,0.174 0.907,0.258 0.274,0.075 0.548,0.152 0.825,0.221 0.316,0.079 0.636,0.15 0.956,0.221 0.269,0.061 0.537,0.123 0.808,0.178 0.335,0.066 0.674,0.122 1.013,0.18 0.261,0.045 0.522,0.094 0.785,0.133 0.362,0.054 0.727,0.096 1.092,0.139 0.245,0.029 0.488,0.064 0.734,0.089 0.412,0.041 0.829,0.067 1.246,0.094 0.203,0.014 0.404,0.035 0.608,0.044 0.623,0.032 1.249,0.048 1.879,0.048 8.386,0 16.126,-2.76 22.364,-7.42 2.258,2.205 5.342,3.569 8.747,3.569 0.406,0 0.806,-0.024 1.202,-0.061 0.13,-0.013 0.256,-0.035 0.385,-0.051 0.263,-0.033 0.525,-0.07 0.783,-0.12 0.151,-0.028 0.3,-0.064 0.449,-0.098 0.23,-0.054 0.458,-0.111 0.683,-0.176 0.155,-0.045 0.309,-0.094 0.462,-0.146 0.211,-0.07 0.419,-0.147 0.626,-0.228 0.154,-0.061 0.31,-0.122 0.461,-0.189 0.196,-0.087 0.387,-0.182 0.578,-0.278 0.151,-0.077 0.304,-0.149 0.452,-0.231 0.182,-0.103 0.358,-0.215 0.535,-0.326 0.308,-0.193 0.608,-0.399 0.898,-0.617 0.122,-0.092 0.248,-0.178 0.366,-0.273 0.179,-0.146 0.348,-0.303 0.519,-0.457 0.101,-0.092 0.204,-0.181 0.302,-0.275 0.17,-0.166 0.333,-0.339 0.494,-0.513 0.086,-0.093 0.172,-0.186 0.254,-0.281 0.162,-0.186 0.317,-0.378 0.468,-0.573 0.068,-0.089 0.135,-0.179 0.201,-0.269 0.154,-0.211 0.303,-0.425 0.443,-0.645 0.047,-0.073 0.09,-0.149 0.135,-0.224 0.149,-0.244 0.294,-0.491 0.427,-0.746 0.008,-0.016 0.015,-0.033 0.023,-0.048 0.47,-0.918 0.832,-1.902 1.065,-2.933 0.202,-0.893 0.318,-1.817 0.318,-2.772 0,-0.839 -0.083,-1.66 -0.241,-2.454 0,0 -0.014,-0.105 -0.035,-0.27 -0.001,-0.001 -0.001,-0.003 -0.001,-0.004 -0.004,-0.033 -0.009,-0.071 -0.014,-0.11 C -35.483,1.665 -35.491,1.6 -35.5,1.524 -35.505,1.481 -35.51,1.439 -35.516,1.393 -35.526,1.299 -35.537,1.198 -35.548,1.091 -35.552,1.056 -35.556,1.024 -35.559,0.987 -35.575,0.836 -35.59,0.676 -35.604,0.508 l -0.003,-0.041 c -0.013,-0.149 -0.025,-0.301 -0.035,-0.455 -0.004,-0.048 -0.006,-0.096 -0.009,-0.144 -0.008,-0.129 -0.015,-0.258 -0.02,-0.388 -0.003,-0.05 -0.005,-0.101 -0.007,-0.153 -0.006,-0.173 -0.01,-0.346 -0.01,-0.513 0,-0.48 0.022,-0.954 0.06,-1.423 0.013,-0.164 0.036,-0.325 0.053,-0.487 0.033,-0.301 0.067,-0.602 0.114,-0.899 0.031,-0.197 0.07,-0.392 0.108,-0.587 0.049,-0.254 0.101,-0.506 0.161,-0.756 0.05,-0.212 0.105,-0.422 0.163,-0.631 0.062,-0.223 0.129,-0.443 0.199,-0.663 0.072,-0.222 0.143,-0.442 0.222,-0.66 0.07,-0.192 0.148,-0.381 0.224,-0.569 0.094,-0.235 0.186,-0.469 0.289,-0.699 0.061,-0.132 0.129,-0.261 0.193,-0.392 0.536,-1.112 1.17,-2.169 1.911,-3.142 -0.567,-2.121 -0.939,-4.32 -1.118,-6.573 v -10e-4 c -0.027,-0.337 -0.048,-0.677 -0.065,-1.017 -0.036,-0.627 -0.063,-1.257 -0.063,-1.895 0,-5.29 0.474,-10.666 3.144,-14.858 4.129,-6.484 8.309,-13.184 8.937,-21.312 0.39,-5.7 -1.321,-10.316 -1.302,-10.951 13.106,7.161 25.683,25.865 34.095,37.257 C 10.97,-19.654 6.74,-8.82 0,0" /></g></g></g></g><g
           transform="translate(525.5986,266.1905)"
           id="g186"><path
             id="path188"
             style="fill:#e27d75;fill-opacity:1;fill-rule:nonzero;stroke:none"
             d="m 0,0 c 0,-4.179 -3.388,-7.565 -7.566,-7.565 -4.178,0 -7.565,3.386 -7.565,7.565 0,4.178 3.387,7.565 7.565,7.565 C -3.388,7.565 0,4.178 0,0" /></g><g
           transform="translate(453.7349,266.1905)"
           id="g190"><path
             id="path192"
             style="fill:#e27d75;fill-opacity:1;fill-rule:nonzero;stroke:none"
             d="m 0,0 c 0,-4.179 -3.387,-7.565 -7.565,-7.565 -4.179,0 -7.566,3.386 -7.566,7.565 0,4.178 3.387,7.565 7.566,7.565 C -3.387,7.565 0,4.178 0,0" /></g><g
           transform="translate(520.8706,299.9707)"
           id="g194"><path
             id="path196"
             style="fill:#233f4b;fill-opacity:1;fill-rule:nonzero;stroke:none"
             d="m 0,0 h -18.944 c -2.193,0 -3.987,1.795 -3.987,3.988 0,2.193 1.794,3.988 3.987,3.988 H 0 C 2.193,7.976 3.988,6.181 3.988,3.988 3.988,1.795 2.193,0 0,0" /></g><g
           transform="translate(520.8706,301.9834)"
           id="g198"><path
             id="path200"
             style="fill:#1a2f38;fill-opacity:1;fill-rule:nonzero;stroke:none"
             d="m 0,0 h -18.944 c -1.844,0 -3.391,1.274 -3.842,2.981 -0.086,-0.323 -0.146,-0.657 -0.146,-1.005 0,-2.194 1.795,-3.989 3.988,-3.989 H 0 c 2.193,0 3.988,1.795 3.988,3.989 0,0.348 -0.06,0.682 -0.146,1.005 C 3.392,1.274 1.844,0 0,0" /></g><g
           transform="translate(501.6211,304.9649)"
           id="g202"><path
             id="path204"
             style="fill:none;stroke:#38525f;stroke-width:2;stroke-linecap:round;stroke-linejoin:miter;stroke-miterlimit:10;stroke-dasharray:none;stroke-opacity:1"
             d="M 0,0 H 16.5" /></g><g
           transform="translate(463.6489,299.9707)"
           id="g206"><path
             id="path208"
             style="fill:#233f4b;fill-opacity:1;fill-rule:nonzero;stroke:none"
             d="m 0,0 h -18.944 c -2.193,0 -3.987,1.795 -3.987,3.988 0,2.193 1.794,3.988 3.987,3.988 H 0 C 2.193,7.976 3.988,6.181 3.988,3.988 3.988,1.795 2.193,0 0,0" /></g><g
           transform="translate(463.6489,301.9834)"
           id="g210"><path
             id="path212"
             style="fill:#1a2f38;fill-opacity:1;fill-rule:nonzero;stroke:none"
             d="m 0,0 h -18.944 c -1.844,0 -3.391,1.274 -3.842,2.981 -0.086,-0.323 -0.145,-0.657 -0.145,-1.005 0,-2.194 1.794,-3.989 3.987,-3.989 H 0 c 2.193,0 3.988,1.795 3.988,3.989 0,0.348 -0.06,0.682 -0.146,1.005 C 3.392,1.274 1.844,0 0,0" /></g><g
           transform="translate(444.3994,304.9649)"
           id="g214"><path
             id="path216"
             style="fill:none;stroke:#38525f;stroke-width:2;stroke-linecap:round;stroke-linejoin:miter;stroke-miterlimit:10;stroke-dasharray:none;stroke-opacity:1"
             d="M 0,0 H 16.5" /></g><g
           transform="translate(501.3911,287.0342)"
           id="g218"><path
             id="path220"
             style="fill:#ffffff;fill-opacity:1;fill-rule:nonzero;stroke:none"
             d="m 0,0 c 1.708,-3.805 5.523,-6.459 9.964,-6.459 4.513,0 8.385,2.737 10.052,6.641 C 18.307,3.986 14.493,6.641 10.051,6.641 5.539,6.641 1.667,3.904 0,0" /></g><g
           transform="translate(517.7871,286.8653)"
           id="g222"><path
             id="path224"
             style="fill:#162831;fill-opacity:1;fill-rule:nonzero;stroke:none"
             d="m 0,0 c 0,-3.452 -2.799,-6.251 -6.251,-6.251 -3.453,0 -6.251,2.799 -6.251,6.251 0,3.452 2.798,6.251 6.251,6.251 C -2.799,6.251 0,3.452 0,0" /></g><g
           transform="translate(521.4067,287.2159)"
           id="g226"><path
             id="path228"
             style="fill:none;stroke:#162831;stroke-width:3;stroke-linecap:round;stroke-linejoin:miter;stroke-miterlimit:10;stroke-dasharray:none;stroke-opacity:1"
             d="m 0,0 c -1.709,3.805 -5.523,6.459 -9.964,6.459 -4.513,0 -8.385,-2.736 -10.052,-6.641" /></g><g
           transform="translate(511.4424,293.6748)"
           id="g230"><path
             id="path232"
             style="fill:none;stroke:#233f4b;stroke-width:1;stroke-linecap:round;stroke-linejoin:miter;stroke-miterlimit:10;stroke-dasharray:none;stroke-opacity:1"
             d="M 0,0 C -2.461,0 -4.731,-0.813 -6.558,-2.187" /></g><g
           transform="translate(514.6079,287.8692)"
           id="g234"><path
             id="path236"
             style="fill:#ffffff;fill-opacity:1;fill-rule:nonzero;stroke:none"
             d="m 0,0 c 0,-0.819 -0.665,-1.484 -1.485,-1.484 -0.821,0 -1.486,0.665 -1.486,1.484 0,0.82 0.665,1.485 1.486,1.485 C -0.665,1.485 0,0.82 0,0" /></g><g
           transform="translate(516.2192,285.5664)"
           id="g238"><path
             id="path240"
             style="fill:#ffffff;fill-opacity:1;fill-rule:nonzero;stroke:none"
             d="m 0,0 c 0,-0.471 -0.381,-0.853 -0.852,-0.853 -0.47,0 -0.852,0.382 -0.852,0.853 0,0.47 0.382,0.852 0.852,0.852 C -0.381,0.852 0,0.47 0,0" /></g><g
           transform="translate(442.6416,287.0342)"
           id="g242"><path
             id="path244"
             style="fill:#ffffff;fill-opacity:1;fill-rule:nonzero;stroke:none"
             d="m 0,0 c 1.708,-3.805 5.523,-6.459 9.964,-6.459 4.513,0 8.385,2.737 10.052,6.641 C 18.307,3.986 14.493,6.641 10.051,6.641 5.539,6.641 1.667,3.904 0,0" /></g><g
           transform="translate(459.0381,286.8653)"
           id="g246"><path
             id="path248"
             style="fill:#162831;fill-opacity:1;fill-rule:nonzero;stroke:none"
             d="m 0,0 c 0,-3.452 -2.799,-6.251 -6.251,-6.251 -3.453,0 -6.252,2.799 -6.252,6.251 0,3.452 2.799,6.251 6.252,6.251 C -2.799,6.251 0,3.452 0,0" /></g><g
           transform="translate(462.6572,287.2159)"
           id="g250"><path
             id="path252"
             style="fill:none;stroke:#162831;stroke-width:3;stroke-linecap:round;stroke-linejoin:miter;stroke-miterlimit:10;stroke-dasharray:none;stroke-opacity:1"
             d="m 0,0 c -1.708,3.805 -5.523,6.459 -9.964,6.459 -4.513,0 -8.385,-2.736 -10.052,-6.641" /></g><g
           transform="translate(452.6929,293.6748)"
           id="g254"><path
             id="path256"
             style="fill:none;stroke:#233f4b;stroke-width:1;stroke-linecap:round;stroke-linejoin:miter;stroke-miterlimit:10;stroke-dasharray:none;stroke-opacity:1"
             d="M 0,0 C -2.461,0 -4.731,-0.813 -6.557,-2.187" /></g><g
           transform="translate(455.8584,287.8692)"
           id="g258"><path
             id="path260"
             style="fill:#ffffff;fill-opacity:1;fill-rule:nonzero;stroke:none"
             d="m 0,0 c 0,-0.819 -0.665,-1.484 -1.485,-1.484 -0.82,0 -1.485,0.665 -1.485,1.484 0,0.82 0.665,1.485 1.485,1.485 C -0.665,1.485 0,0.82 0,0" /></g><g
           transform="translate(457.4697,285.5664)"
           id="g262"><path
             id="path264"
             style="fill:#ffffff;fill-opacity:1;fill-rule:nonzero;stroke:none"
             d="m 0,0 c 0,-0.471 -0.381,-0.853 -0.852,-0.853 -0.47,0 -0.851,0.382 -0.851,0.853 0,0.47 0.381,0.852 0.851,0.852 C -0.381,0.852 0,0.47 0,0" /></g><g
           transform="translate(468.9692,259.7256)"
           id="g266"><path
             id="path268"
             style="fill:#822148;fill-opacity:1;fill-rule:nonzero;stroke:none"
             d="M 0,0 V -4.513 C 0,-13.36 7.239,-20.6 16.087,-20.6 c 8.848,0 16.087,7.24 16.087,16.087 V 0 Z" /></g><g
           transform="translate(487.8726,243.5059)"
           id="g270"><path
             id="path272"
             style="fill:#561026;fill-opacity:1;fill-rule:nonzero;stroke:none"
             d="M 0,0 H -6.229 C -8.231,0 -9.87,1.639 -9.87,3.641 v 10e-4 c 0,2.002 1.639,3.64 3.641,3.64 H 0 c 2.002,0 3.641,-1.638 3.641,-3.64 V 3.641 C 3.641,1.639 2.002,0 0,0" /></g><g
           transform="translate(497.3159,249.3379)"
           id="g274"><path
             id="path276"
             style="fill:#bc2753;fill-opacity:1;fill-rule:nonzero;stroke:none"
             d="m 0,0 c -7.209,0 -13.521,-3.782 -17.104,-9.458 1.531,-0.487 3.158,-0.754 4.844,-0.754 6.704,0 12.477,4.16 14.885,10.023 C 1.764,-0.077 0.892,0 0,0" /></g><g
           transform="translate(468.9692,255.1407)"
           id="g278"><path
             id="path280"
             style="fill:#ffffff;fill-opacity:1;fill-rule:nonzero;stroke:none"
             d="M 0,0 C 0,-0.083 0.014,-0.163 0.017,-0.246 H 32.158 C 32.16,-0.163 32.174,-0.083 32.174,0 V 4.585 H 0 Z" /></g><g
           transform="translate(565.3779,236.0782)"
           id="g282"><path
             id="path284"
             style="fill:#233f4b;fill-opacity:1;fill-rule:nonzero;stroke:none"
             d="m 0,0 c -4.4,0 -7.967,3.566 -7.967,7.967 0,2.567 1.267,5.078 3.104,6.302 12.33,12.234 18.629,25.656 18.629,42.46 0,13.059 -4.381,25.089 -11.741,34.722 -3.853,40.382 -39.859,71.969 -81.251,71.969 -42.696,0 -77.538,-33.608 -79.527,-75.813 -6.781,-10.19 -10.74,-22.419 -10.74,-35.577 0,-18.744 8.025,-35.61 20.821,-47.365 -1.344,-4.389 -4.864,-7.824 -9.31,-9.041 2.261,-1.585 5.009,-2.522 7.98,-2.522 2.21,0 4.29,0.531 6.144,1.451 -1.592,-2.605 -2.525,-5.655 -2.525,-8.93 0,-9.483 7.688,-17.172 17.171,-17.172 7.242,0 13.568,4.589 15.929,10.845 -1.939,-2.303 -4.167,-3.718 -7.502,-3.757 -4.987,-0.059 -8.155,3.947 -8.155,8.537 0,2.829 1.373,5.337 3.487,6.896 l -0.027,0.066 c 5.03,3.382 8.347,9.116 8.347,15.633 0,3.862 -1.167,7.45 -3.161,10.438 0.51,1.965 0.782,4.025 0.782,6.149 0,8.958 -4.829,16.784 -12.023,21.029 8.884,4.308 15.186,13.104 15.956,23.442 0,0 -0.628,4.482 -0.628,7.263 0,20.659 16.748,37.405 37.406,37.405 8.385,0 16.125,-2.758 22.363,-7.418 2.259,2.205 5.342,3.568 8.748,3.568 6.919,0 14.53,-5.61 14.53,-12.529 0,-0.84 -0.083,-1.661 -0.241,-2.455 0,0 -0.263,-1.838 -0.263,-3.297 0,-4.106 1.388,-7.878 3.698,-10.909 -0.809,-3.026 -1.246,-6.205 -1.246,-9.486 0,-5.29 1.126,-10.316 3.144,-14.858 5.635,-6.473 9.055,-14.925 9.055,-24.181 0,-3.361 -0.407,-6.572 -1.179,-9.615 -8.417,-4.69 -14.487,-13.077 -16.013,-22.97 -1.098,-2.343 -3.84,-5.37 -3.84,-8.243 0,-10.669 10.65,-19.317 21.319,-19.317 5.805,0 10.998,2.572 14.539,6.626 -1.053,-0.23 -2.145,-0.358 -3.267,-0.358 -7.57,0 -13.843,5.491 -15.092,12.705 2.803,-2.903 6.729,-4.717 11.083,-4.717 8.513,0 15.414,6.902 15.414,15.414 0,0.23 -0.015,0.455 -0.025,0.682 C 2.767,0.381 1.429,0 0,0" /></g><g
           transform="translate(433.3022,284.7305)"
           id="g286"><path
             id="path288"
             style="fill:#1a2f38;fill-opacity:1;fill-rule:nonzero;stroke:none"
             d="m 0,0 c 1.555,-0.918 3.532,-0.546 4.841,-1.773 6.566,4.771 11.017,12.276 11.656,20.85 0,0 -0.19,1.362 -0.362,3.049 C 14.541,13.009 8.625,4.811 0,0" /></g><g
           transform="translate(537.3096,296.9219)"
           id="g290"><path
             id="path292"
             style="fill:#1a2f38;fill-opacity:1;fill-rule:nonzero;stroke:none"
             d="M 0,0 C -2.174,3.413 -2.682,7.72 -3.016,11.94 -3.093,10.979 -3.144,10.01 -3.144,9.027 -3.144,3.737 -2.67,-1.64 0,-5.831 c 4.129,-6.482 8.309,-13.184 8.937,-21.312 0.071,0.975 0.119,1.96 0.119,2.962 C 9.056,-14.925 4.61,-7.238 0,0" /></g><g
           transform="translate(534.5068,316.7471)"
           id="g294"><path
             id="path296"
             style="fill:#1a2f38;fill-opacity:1;fill-rule:nonzero;stroke:none"
             d="M 0,0 C 0.21,1.538 0.512,3.048 0.905,4.52 -0.867,6.845 -2.089,9.609 -2.566,12.624 -2.637,12.064 -2.792,10.722 -2.792,9.597 -2.792,6.063 -1.76,2.779 0,0" /></g><g
           transform="translate(414.7275,242.6543)"
           id="g298"><path
             id="path300"
             style="fill:#1a2f38;fill-opacity:1;fill-rule:nonzero;stroke:none"
             d="M 0,0 C 0.854,1.182 1.542,2.493 1.978,3.92 -10.166,15.076 -17.998,30.84 -18.766,48.439 -18.812,47.45 -18.842,46.456 -18.842,45.454 -18.842,27.699 -11.635,11.637 0,0" /></g><g
           transform="translate(439.8979,232.9483)"
           id="g302"><path
             id="path304"
             style="fill:#1a2f38;fill-opacity:1;fill-rule:nonzero;stroke:none"
             d="m 0,0 0.027,-0.067 c -2.114,-1.559 -3.487,-4.067 -3.487,-6.895 0,-1.048 0.173,-2.062 0.487,-3.008 0.575,1.642 1.626,3.059 3,4.072 L 0,-5.832 c 5.03,3.382 8.347,9.116 8.347,15.633 0,0.998 -0.081,1.977 -0.231,2.933 C 7.294,7.436 4.269,2.869 0,0" /></g><g
           transform="translate(425.4687,238.4034)"
           id="g306"><path
             id="path308"
             style="fill:#1a2f38;fill-opacity:1;fill-rule:nonzero;stroke:none"
             d="m 0,0 c -4.43,-7.167 -11.75,-8.25 -18.073,-6.701 2.261,-1.585 5.009,-2.523 7.98,-2.523 1.311,0 2.568,0.206 3.767,0.55 C -2.333,-7.364 0,-4.667 0,0" /></g><g
           transform="translate(560.5151,256.1778)"
           id="g310"><path
             id="path312"
             style="fill:#1a2f38;fill-opacity:1;fill-rule:nonzero;stroke:none"
             d="m 0,0 c -1.837,-1.224 -3.104,-3.734 -3.104,-6.302 0,-1.025 0.2,-2.002 0.553,-2.902 0.539,1.413 1.438,2.632 2.551,3.373 12.33,12.235 18.628,25.656 18.628,42.46 0,0.932 -0.028,1.856 -0.072,2.776 C 17.832,24.015 11.573,11.484 0,0" /></g><g
           transform="translate(553.915,226.8526)"
           id="g314"><path
             id="path316"
             style="fill:#1a2f38;fill-opacity:1;fill-rule:nonzero;stroke:none"
             d="m 0,0 c -4.354,0 -10.153,1.593 -14.778,6.468 0.68,-3.932 2.916,-9 9.618,-11.392 1.615,-0.577 3.346,-0.907 5.16,-0.907 8.513,0 15.414,6.901 15.414,15.414 0,0.23 -0.015,0.455 -0.025,0.682 C 12.93,2.926 6.519,0 0,0" /></g><g
           transform="translate(553.2651,213.7706)"
           id="g318"><path
             id="path320"
             style="fill:#1a2f38;fill-opacity:1;fill-rule:nonzero;stroke:none"
             d="m 0,0 c -2.063,-0.756 -4.287,-1.175 -6.613,-1.175 -9.676,0 -17.667,7.122 -19.074,16.404 -0.154,-0.968 -2.245,-1.951 -2.245,-2.917 0,-10.669 10.65,-19.318 21.319,-19.318 5.805,0 10.998,2.572 14.539,6.626 C 6.873,-0.609 5.781,-0.737 4.659,-0.737 3.032,-0.737 1.47,-0.47 0,0" /></g><g
           transform="translate(444.5933,211.6172)"
           id="g322"><path
             id="path324"
             style="fill:#1a2f38;fill-opacity:1;fill-rule:nonzero;stroke:none"
             d="m 0,0 c -0.584,-0.007 -1.14,0.047 -1.672,0.146 -2.08,-0.894 -4.366,-1.403 -6.755,-1.403 -8.493,0 -15.527,6.172 -16.908,14.271 -0.167,-0.952 -0.264,-1.929 -0.264,-2.93 0,-9.483 7.688,-17.172 17.172,-17.172 7.242,0 13.568,4.589 15.929,10.845 C 5.563,1.454 3.334,0.039 0,0" /></g><g
           transform="translate(531.8999,334.8653)"
           id="g326"><path
             id="path328"
             style="fill:#1a2f38;fill-opacity:1;fill-rule:nonzero;stroke:none"
             d="m 0,0 c 0.043,0.367 0.077,0.607 0.077,0.607 0.158,0.794 0.241,1.615 0.241,2.455 0,6.919 -7.611,12.529 -14.53,12.529 -3.406,0 -6.489,-1.363 -8.747,-3.568 -6.239,4.66 -13.979,7.419 -22.364,7.419 -20.658,0 -37.406,-16.747 -37.406,-37.406 0,-0.828 0.057,-1.807 0.135,-2.775 1.556,19.227 17.642,34.35 37.271,34.35 8.385,0 16.125,-2.759 22.364,-7.42 2.258,2.205 5.341,3.569 8.747,3.569 C -8.246,9.76 -1.262,5.585 0,0" /></g><g
           transform="translate(424.4131,326.625)"
           id="g330"><path
             id="path332"
             style="fill:none;stroke:#38525f;stroke-width:14;stroke-linecap:round;stroke-linejoin:miter;stroke-miterlimit:10;stroke-dasharray:none;stroke-opacity:1"
             d="M 0,0 C 0,30.577 24.788,55.364 55.364,55.364" /></g><g
           transform="translate(428.7935,251.8926)"
           id="g334"><path
             id="path336"
             style="fill:none;stroke:#38525f;stroke-width:5;stroke-linecap:round;stroke-linejoin:miter;stroke-miterlimit:10;stroke-dasharray:none;stroke-opacity:1"
             d="M 0,0 C -4.231,-1.619 -8.974,0.498 -10.593,4.729" /></g><g
           transform="translate(545.7803,325.1739)"
           id="g338"><path
             id="path340"
             style="fill:none;stroke:#38525f;stroke-width:5;stroke-linecap:round;stroke-linejoin:miter;stroke-miterlimit:10;stroke-dasharray:none;stroke-opacity:1"
             d="M 0,0 C -2.528,-0.968 -5.362,0.297 -6.33,2.825" /></g><g
           transform="translate(554.8057,234.5479)"
           id="g342"><path
             id="path344"
             style="fill:none;stroke:#38525f;stroke-width:5;stroke-linecap:round;stroke-linejoin:miter;stroke-miterlimit:10;stroke-dasharray:none;stroke-opacity:1"
             d="M 0,0 C -3.853,-1.97 -8.573,-0.443 -10.543,3.41" /></g><g
           transform="translate(434.104,295.8584)"
           id="g346"><path
             id="path348"
             style="fill:none;stroke:#38525f;stroke-width:5;stroke-linecap:round;stroke-linejoin:miter;stroke-miterlimit:10;stroke-dasharray:none;stroke-opacity:1"
             d="M 0,0 C -2.599,-5.823 -9.425,-8.437 -15.248,-5.838" /></g><g
           transform="translate(415.1562,283.6534)"
           id="g350"><path
             id="path352"
             style="fill:#1a2f38;fill-opacity:1;fill-rule:nonzero;stroke:none"
             d="m 0,0 c 0,0 7.979,-3.694 18.146,1.077 0,0 9.164,1.518 4.841,-1.773 C 16.062,-5.969 5.312,-7 0,0" /></g><g
           transform="translate(431.3853,246.0704)"
           id="g354"><path
             id="path356"
             style="fill:#1a2f38;fill-opacity:1;fill-rule:nonzero;stroke:none"
             d="m 0,0 c 0,0 -7.339,-6.167 -14.68,0.504 0,0 -5.953,1.282 -1.978,-3.92 C -12.391,-9 -2.833,-8.5 0,0" /></g><g
           transform="translate(552.3032,323.0586)"
           id="g358"><path
             id="path360"
             style="fill:#1a2f38;fill-opacity:1;fill-rule:nonzero;stroke:none"
             d="m 0,0 c 0,0 -2,-6.613 -8.71,-5.937 -7.826,0.788 -10.03,7.133 -10.03,7.133 l 0.944,-7.508 c 0,0 1.589,-4.223 9.296,-4.051 C 0.875,-10.155 0,0 0,0" /></g><g
           transform="translate(558.7275,239.6582)"
           id="g362"><path
             id="path364"
             style="fill:#1a2f38;fill-opacity:1;fill-rule:nonzero;stroke:none"
             d="m 0,0 c 0,0 -6.93,6.653 0,14.668 l 1.788,-3.98 C 1.788,10.688 -3.055,6.192 0,0" /></g><g
           transform="translate(484.1104,282.9571)"
           id="g366"><path
             id="path368"
             style="fill:none;stroke:#e9af95;stroke-width:2;stroke-linecap:round;stroke-linejoin:miter;stroke-miterlimit:10;stroke-dasharray:none;stroke-opacity:1"
             d="m 0,0 v -4.583 c 0,0 -4.333,-0.667 -4.333,-5.334 0,-5 4.786,-4.75 4.786,-4.75" /></g><g
           transform="translate(472.8701,214.1954)"
           id="g370"><path
             id="path372"
             style="fill:#e9b49a;fill-opacity:1;fill-rule:nonzero;stroke:none"
             d="m 0,0 c -0.019,-2.463 -2.017,-4.454 -4.484,-4.454 v -6.275 H 10.064 V 0 Z" /></g><g
           transform="translate(515.0044,214.1954)"
           id="g374"><path
             id="path376"
             style="fill:#e9b49a;fill-opacity:1;fill-rule:nonzero;stroke:none"
             d="m 0,0 c 0.019,-2.463 2.017,-4.454 4.484,-4.454 v -6.275 H -10.064 V 0 Z" /></g><path
           id="path378"
           style="fill:#ea9431;fill-opacity:1;fill-rule:nonzero;stroke:none"
           d="m 526.122,209.741 h 9.17 v -2.977 h -9.17 z" /><g
           transform="translate(455.6826,209.7413)"
           id="g380"><path
             id="path382"
             style="fill:#e9b49a;fill-opacity:1;fill-rule:nonzero;stroke:none"
             d="m 0,0 c 3.629,-17.164 18.861,-30.047 37.105,-30.047 18.245,0 33.476,12.883 37.106,30.047 z" /></g><g
           transform="translate(429.1704,76.7745)"
           id="g384"><path
             id="path386"
             style="fill:#e9b49a;fill-opacity:1;fill-rule:nonzero;stroke:none"
             d="M 0,0 H -4.461 C -11.46,0 -17.133,5.674 -17.133,12.672 V 75.879 H 12.672 V 12.672 C 12.672,5.674 6.999,0 0,0" /></g><g
           transform="translate(561.2642,76.7491)"
           id="g388"><path
             id="path390"
             style="fill:#eabea3;fill-opacity:1;fill-rule:nonzero;stroke:none"
             d="m 0,0 h -3.875 c -8.712,0 -15.774,7.062 -15.774,15.774 v 60.13 H 15.774 V 15.774 C 15.774,7.062 8.712,0 0,0" /></g><g
           transform="translate(440.1528,89.3184)"
           id="g392"><path
             id="path394"
             style="fill:#e9b49a;fill-opacity:1;fill-rule:nonzero;stroke:none"
             d="m 0,0 v -0.893 c 0,-6.434 -5.216,-11.651 -11.65,-11.651 h -74.885 v 0.894 c 0,12.868 10.432,23.3 23.301,23.3 H -11.65 C -5.216,11.65 0,6.435 0,0" /></g><g
           id="g396"><g
             id="g398" /><g
             id="g410"><g
               style="opacity:0.33999604"
               id="g408"
               clip-path="url(#clipPath402)"><g
                 id="g406"
                 transform="translate(435.0073,152.6534)"><path
                   id="path404"
                   style="fill:#d98480;fill-opacity:1;fill-rule:nonzero;stroke:none"
                   d="m 0,0 v -63.207 c 0,-6.598 -5.044,-12.013 -11.485,-12.611 0.391,-0.037 0.786,-0.061 1.187,-0.061 h 4.461 c 6.999,0 12.672,5.674 12.672,12.672 L 6.835,0 Z" /></g></g></g></g><g
           transform="translate(440.5557,76.7491)"
           id="g412"><path
             id="path414"
             style="fill:#bcbec0;fill-opacity:1;fill-rule:nonzero;stroke:none"
             d="m 0,0 h -97.747 c -2.113,0 -3.843,1.729 -3.843,3.844 0,2.114 1.73,3.843 3.843,3.843 L 0,7.687 C 2.114,7.687 3.844,5.958 3.844,3.844 3.844,1.729 2.114,0 0,0" /></g><g
           transform="translate(577.2231,92.4532)"
           id="g416"><path
             id="path418"
             style="fill:#eabea3;fill-opacity:1;fill-rule:nonzero;stroke:none"
             d="m 0,0 v 0 c 0,-8.659 -7.02,-15.679 -15.678,-15.679 h -132.958 c 0,17.319 14.038,31.358 31.356,31.358 H -15.678 C -7.02,15.679 0,8.659 0,0" /></g><g
           transform="translate(459.9434,114.7374)"
           id="g420"><path
             id="path422"
             style="fill:#ea9431;fill-opacity:1;fill-rule:nonzero;stroke:none"
             d="m 0,0 c -9.51,0 -17.34,-4.371 -18.101,-12.365 5.113,3.625 11.356,5.76 18.101,5.76 H 81.671 V 0 Z" /></g><g
           id="g424"><g
             id="g426" /><g
             id="g438"><g
               style="opacity:0.33999604"
               id="g436"
               clip-path="url(#clipPath430)"><g
                 id="g434"
                 transform="translate(577.0386,94.6905)"><path
                   id="path432"
                   style="fill:#d98480;fill-opacity:1;fill-rule:nonzero;stroke:none"
                   d="m 0,0 v 57.963 h -7.409 v -60.13 c 0,-1.544 -0.223,-3.035 -0.638,-4.444 -0.971,-3.293 -3.961,-5.688 -7.394,-5.7 h -0.053 -132.448 c -0.329,-1.82 -0.51,-3.69 -0.51,-5.605 h 127.994 c 0.268,-0.015 0.537,-0.025 0.809,-0.025 h 3.875 c 0.583,0 1.157,0.037 1.724,0.098 7.982,0.73 14.235,7.435 14.235,15.606 C 0.185,-1.475 0.108,-0.732 0,0" /></g></g></g></g></g></g><g
       id="g440"><g
         clip-path="url(#clipPath446)"
         id="g442"><g
           transform="translate(250.5645,76.7491)"
           id="g448"><path
             id="path450"
             style="fill:#808285;fill-opacity:1;fill-rule:nonzero;stroke:none"
             d="m 0,0 h 75.813 c 2.123,0 3.843,1.721 3.843,3.844 0,2.123 -1.72,3.843 -3.843,3.843 L 0,7.687 c -2.123,0 -3.844,-1.72 -3.844,-3.843 C -3.844,1.721 -2.123,0 0,0" /></g><g
           transform="translate(373.314,124.6133)"
           id="g452"><path
             id="path454"
             style="fill:#bcbec0;fill-opacity:1;fill-rule:nonzero;stroke:none"
             d="m 0,0 h -245.843 c -9.205,0 -16.736,7.531 -16.736,16.735 v 147.251 c 0,9.205 7.531,16.736 16.736,16.736 H 0 c 9.205,0 16.736,-7.531 16.736,-16.736 V 16.735 C 16.736,7.531 9.205,0 0,0" /></g><g
           transform="translate(373.314,305.335)"
           id="g456"><path
             id="path458"
             style="fill:#939598;fill-opacity:1;fill-rule:nonzero;stroke:none"
             d="M 0,0 H -10.26 C -1.056,0 6.476,-7.53 6.476,-16.735 v -147.251 c 0,-9.204 -7.532,-16.736 -16.736,-16.736 H 0 c 9.205,0 16.736,7.532 16.736,16.736 V -16.735 C 16.736,-7.53 9.205,0 0,0" /></g><g
           transform="translate(249.4097,76.7491)"
           id="g460"><path
             id="path462"
             style="fill:#939598;fill-opacity:1;fill-rule:nonzero;stroke:none"
             d="m 0,0 h -78 l 33.622,127.78 h 78 z" /></g><g
           transform="translate(282.6758,204.5293)"
           id="g464"><path
             id="path466"
             style="fill:#808285;fill-opacity:1;fill-rule:nonzero;stroke:none"
             d="m 0,0 -33.622,-127.78 8.343,0.025 28.455,110.404 z" /></g><g
           transform="translate(122.189,181.8516)"
           id="g468"><path
             id="path470"
             style="fill:none;stroke:#d1d3d4;stroke-width:7;stroke-linecap:round;stroke-linejoin:round;stroke-miterlimit:10;stroke-dasharray:none;stroke-opacity:1"
             d="m 0,0 v 103.336 c 0.09,4.937 4.167,8.866 9.104,8.776 h 86.308" /></g><g
           transform="translate(366.1035,259.7256)"
           id="g472"><path
             id="path474"
             style="fill:none;stroke:#a7a9ac;stroke-width:7;stroke-linecap:round;stroke-linejoin:miter;stroke-miterlimit:10;stroke-dasharray:none;stroke-opacity:1"
             d="m 0,0 v -114.303 c -0.09,-4.937 -4.166,-8.866 -9.104,-8.775 h -58.899" /></g><g
           id="g476"><g
             id="g478" /><g
             id="g490"><g
               style="opacity:0.42999303"
               id="g488"
               clip-path="url(#clipPath482)"><g
                 id="g486"
                 transform="translate(285.8521,187.1788)"><path
                   id="path484"
                   style="fill:#808285;fill-opacity:1;fill-rule:nonzero;stroke:none"
                   d="M 0,0 V -62.565 H -16.454 Z" /></g></g></g></g><g
           transform="translate(124.0273,93.584)"
           id="g492"><path
             id="path494"
             style="fill:#569b5c;fill-opacity:1;fill-rule:nonzero;stroke:none"
             d="m 0,0 h -2.63 c -2.881,0 -5.238,2.356 -5.238,5.236 v 49.703 c 0,2.88 2.357,5.238 5.238,5.238 H 0 c 2.88,0 5.237,-2.358 5.237,-5.238 V 5.236 C 5.237,2.356 2.88,0 0,0" /></g><g
           transform="translate(108.793,115.3438)"
           id="g496"><path
             id="path498"
             style="fill:#569b5c;fill-opacity:1;fill-rule:nonzero;stroke:none"
             d="m 0,0 h -1.73 c -1.895,0 -3.446,1.551 -3.446,3.446 v 18.34 c 0,1.896 1.551,3.445 3.446,3.445 H 0 c 1.895,0 3.446,-1.549 3.446,-3.445 V 3.446 C 3.446,1.551 1.895,0 0,0" /></g><g
           transform="translate(107.3311,115.3438)"
           id="g500"><path
             id="path502"
             style="fill:#569b5c;fill-opacity:1;fill-rule:nonzero;stroke:none"
             d="m 0,0 h 11.082 c 1.282,0 2.332,1.05 2.332,2.333 v 1.172 c 0,1.283 -1.05,2.333 -2.332,2.333 H 0 c -1.283,0 -2.333,-1.05 -2.333,-2.333 V 2.333 C -2.333,1.05 -1.283,0 0,0" /></g><g
           transform="translate(134.5562,126.2696)"
           id="g504"><path
             id="path506"
             style="fill:#569b5c;fill-opacity:1;fill-rule:nonzero;stroke:none"
             d="m 0,0 h 1.416 c 1.549,0 2.817,1.269 2.817,2.818 v 14.999 c 0,1.55 -1.268,2.819 -2.817,2.819 H 0 c -1.55,0 -2.818,-1.269 -2.818,-2.819 V 2.818 C -2.818,1.269 -1.55,0 0,0" /></g><g
           transform="translate(135.752,126.2696)"
           id="g508"><path
             id="path510"
             style="fill:#569b5c;fill-opacity:1;fill-rule:nonzero;stroke:none"
             d="m 0,0 h -9.063 c -1.049,0 -1.908,0.858 -1.908,1.908 v 0.958 c 0,1.05 0.859,1.908 1.908,1.908 H 0 c 1.049,0 1.908,-0.858 1.908,-1.908 V 1.908 C 1.908,0.858 1.049,0 0,0" /></g><g
           transform="translate(138.1621,76.4717)"
           id="g512"><path
             id="path514"
             style="fill:#a97b50;fill-opacity:1;fill-rule:nonzero;stroke:none"
             d="m 0,0 h -30.9 c -2.609,0 -4.725,2.115 -4.725,4.726 v 21.475 c 0,2.61 2.116,4.725 4.725,4.725 H 0 c 2.609,0 4.725,-2.115 4.725,-4.725 V 4.726 C 4.725,2.115 2.609,0 0,0" /></g><g
           transform="translate(102.5371,85.3663)"
           id="g516"><path
             id="path518"
             style="fill:#603912;fill-opacity:1;fill-rule:nonzero;stroke:none"
             d="m 0,0 v -4.169 c 0,-2.61 2.116,-4.726 4.725,-4.726 h 30.9 c 2.609,0 4.725,2.116 4.725,4.726 V 0 Z" /></g></g></g></g></svg>