<?xml version="1.0" encoding="UTF-8" standalone="no"?>
<svg
   xmlns:dc="http://purl.org/dc/elements/1.1/"
   xmlns:cc="http://creativecommons.org/ns#"
   xmlns:rdf="http://www.w3.org/1999/02/22-rdf-syntax-ns#"
   xmlns:svg="http://www.w3.org/2000/svg"
   xmlns="http://www.w3.org/2000/svg"
   viewBox="0 0 734.55469 506.52533"
   height="506.52533"
   width="734.55469"
   xml:space="preserve"
   id="svg2"
   version="1.1"><metadata
     id="metadata8"><rdf:RDF><cc:Work
         rdf:about=""><dc:format>image/svg+xml</dc:format><dc:type
           rdf:resource="http://purl.org/dc/dcmitype/StillImage" /></cc:Work></rdf:RDF></metadata><defs
     id="defs6"><clipPath
       id="clipPath26"
       clipPathUnits="userSpaceOnUse"><path
         id="path24"
         d="M 0,379.894 H 550.916 V 0 H 0 Z" /></clipPath><clipPath
       id="clipPath66"
       clipPathUnits="userSpaceOnUse"><path
         id="path64"
         d="M 0,379.894 H 550.916 V 0 H 0 Z" /></clipPath><clipPath
       id="clipPath78"
       clipPathUnits="userSpaceOnUse"><path
         id="path76"
         d="M 0,379.894 H 550.916 V 0 H 0 Z" /></clipPath><clipPath
       id="clipPath144"
       clipPathUnits="userSpaceOnUse"><path
         id="path142"
         d="m 384.176,203.638 h 35.542 v -32.826 h -35.542 z" /></clipPath><clipPath
       id="clipPath172"
       clipPathUnits="userSpaceOnUse"><path
         id="path170"
         d="M 320.684,320.833 H 471.995 V 202.259 H 320.684 Z" /></clipPath><clipPath
       id="clipPath398"
       clipPathUnits="userSpaceOnUse"><path
         id="path396"
         d="m 342.593,116.845 h 15.442 V 52.8859 h -15.442 z" /></clipPath><clipPath
       id="clipPath426"
       clipPathUnits="userSpaceOnUse"><path
         id="path424"
         d="M 346.862,116.845 H 472.15 V 52.8643 H 346.862 Z" /></clipPath><clipPath
       id="clipPath442"
       clipPathUnits="userSpaceOnUse"><path
         id="path440"
         d="M 0,379.894 H 550.916 V 0 H 0 Z" /></clipPath><clipPath
       id="clipPath478"
       clipPathUnits="userSpaceOnUse"><path
         id="path476"
         d="m 212.679,145.948 h 13.869 V 93.2099 h -13.869 z" /></clipPath></defs><g
     transform="matrix(1.3333333,0,0,-1.3333333,0,506.52533)"
     id="g10"><path
       id="path12"
       style="fill:#f2c04e;fill-opacity:1;fill-rule:nonzero;stroke:none"
       d="M 452.689,138.252 H 351.363 v 26.714 h 101.326 z" /><path
       id="path14"
       style="fill:#f2c04e;fill-opacity:1;fill-rule:nonzero;stroke:none"
       d="m 447.967,71.67 h -89.932 v 62.157 h 89.932 z" /><path
       id="path16"
       style="fill:#f2c04e;fill-opacity:1;fill-rule:nonzero;stroke:none"
       d="M 475.308,116.846 H 331.434 v 22.793 h 143.874 z" /><path
       id="path18"
       style="fill:#f2c04e;fill-opacity:1;fill-rule:nonzero;stroke:none"
       d="m 475.308,141.457 h -11.303 v -1.818 h 11.303 z" /><g
       id="g20"><g
         clip-path="url(#clipPath26)"
         id="g22"><g
           transform="translate(368.7846,140.2636)"
           id="g28"><path
             id="path30"
             style="fill:#f2c04e;fill-opacity:1;fill-rule:nonzero;stroke:none"
             d="m 0,0 c -7.096,0 -12.848,5.752 -12.848,12.848 0,5.186 3.079,9.643 7.504,11.673 -2.366,0.76 -4.886,1.175 -7.504,1.175 -13.533,0 -24.503,-10.97 -24.503,-24.503 0,-13.533 10.97,-24.503 24.503,-24.503 13.132,0 23.85,10.331 24.473,23.31 z" /></g><g
           transform="translate(351.0038,154.8056)"
           id="g32"><path
             id="path34"
             style="fill:none;stroke:#f3d17d;stroke-width:7;stroke-linecap:round;stroke-linejoin:round;stroke-miterlimit:10;stroke-dasharray:none;stroke-opacity:1"
             d="M 0,0 C -6.326,0.115 -11.547,-4.918 -11.664,-11.244 V -26.699" /></g><g
           transform="translate(437.956,140.2636)"
           id="g36"><path
             id="path38"
             style="fill:#f2c04e;fill-opacity:1;fill-rule:nonzero;stroke:none"
             d="m 0,0 c 7.096,0 12.849,5.752 12.849,12.848 0,5.186 -3.08,9.643 -7.504,11.673 2.365,0.76 4.885,1.175 7.504,1.175 13.532,0 24.503,-10.97 24.503,-24.503 0,-13.533 -10.971,-24.503 -24.503,-24.503 -13.133,0 -23.85,10.331 -24.474,23.31 z" /></g><g
           transform="translate(369.7016,164.9658)"
           id="g40"><path
             id="path42"
             style="fill:#e9b49a;fill-opacity:1;fill-rule:nonzero;stroke:none"
             d="m 0,0 c 3.06,-14.468 15.898,-25.327 31.277,-25.327 15.378,0 28.217,10.859 31.276,25.327 z" /></g><g
           transform="translate(445.2475,131.7754)"
           id="g44"><path
             id="path46"
             style="fill:#ea9431;fill-opacity:1;fill-rule:nonzero;stroke:none"
             d="M 0,0 V 0 -58.496 H -8.441 V -8.441 C -8.441,-3.779 -4.662,0 0,0" /></g><g
           transform="translate(358.0351,131.7763)"
           id="g48"><path
             id="path50"
             style="fill:#ea9431;fill-opacity:1;fill-rule:nonzero;stroke:none"
             d="m 0,0 v 0 -14.931 h -8.441 v 6.49 C -8.441,-3.779 -4.662,0 0,0" /></g><g
           transform="translate(452.9208,164.9658)"
           id="g52"><path
             id="path54"
             style="fill:#ea9431;fill-opacity:1;fill-rule:nonzero;stroke:none"
             d="M 0,0 H -7.902 C 4.462,0 14.485,-10.022 14.485,-22.387 V -48.12 h 7.902 v 25.733 C 22.387,-10.022 12.364,0 0,0" /></g><g
           transform="translate(432.2548,164.9658)"
           id="g56"><path
             id="path58"
             style="fill:#ea9431;fill-opacity:1;fill-rule:nonzero;stroke:none"
             d="m 0,0 c -2.815,-13.313 -13.914,-23.564 -27.651,-25.116 1.191,-0.134 2.4,-0.211 3.626,-0.211 15.379,0 28.217,10.859 31.277,25.327 z" /></g></g></g><g
       id="g60"><g
         clip-path="url(#clipPath66)"
         id="g62"><g
           transform="translate(482.2275,40.4931)"
           id="g68"><path
             id="path70"
             style="fill:#0c171c;fill-opacity:1;fill-rule:nonzero;stroke:none"
             d="m 0,0 h -419.137 c -3.402,0 -6.186,2.783 -6.186,6.186 0,3.402 2.784,6.185 6.186,6.185 L 0,12.371 c 3.402,0 6.186,-2.783 6.186,-6.185 C 6.186,2.783 3.402,0 0,0" /></g></g></g><g
       id="g72"><g
         clip-path="url(#clipPath78)"
         id="g74"><g
           transform="translate(460.0536,183.0254)"
           id="g80"><path
             id="path82"
             style="fill:#162831;fill-opacity:1;fill-rule:nonzero;stroke:none"
             d="M 0,0 C 0.725,0.3 1.414,0.666 2.068,1.082 3.175,1.508 4.372,1.75 5.628,1.75 6.235,1.75 6.826,1.687 7.403,1.583 6.718,2.377 5.937,3.082 5.09,3.701 c 2.002,2.345 3.217,5.38 3.217,8.704 0,7.412 -6.008,13.42 -13.419,13.42 -1.441,0 -2.823,-0.238 -4.122,-0.662 0.174,1.74 0.265,3.505 0.265,5.29 0,29.063 -23.559,52.622 -52.621,52.622 -29.062,0 -52.621,-23.559 -52.621,-52.622 0,-6.871 1.331,-13.429 3.726,-19.446 -1.654,-0.183 -3.235,-0.609 -4.704,-1.245 0.399,1.277 0.615,2.636 0.615,4.047 0,7.49 -6.072,13.562 -13.563,13.562 -7.49,0 -13.562,-6.072 -13.562,-13.562 0,-7.179 5.581,-13.04 12.639,-13.516 0,0 0.839,-0.391 1.804,-1.113 -1.119,-1.974 -3.237,-3.309 -5.668,-3.309 -2.249,0 -4.232,1.14 -5.403,2.873 l 0.032,-0.088 c -0.001,0.001 -0.002,0.003 -0.003,0.004 0.011,-4.988 3.977,-9.037 8.927,-9.202 -0.813,-2.537 -0.479,-5.408 1.17,-7.756 1.832,-2.609 4.823,-3.907 7.787,-3.716 0.019,-0.009 0.037,-0.023 0.056,-0.033 l -0.052,0.033 c 0.023,10e-4 0.046,-0.001 0.069,0 -0.444,0.234 -0.863,0.521 -1.26,0.842 -1.039,0.974 -1.691,2.356 -1.691,3.893 0,1.128 0.355,2.172 0.953,3.034 2.925,-4.436 7.938,-7.369 13.649,-7.369 6.874,0 12.748,4.244 15.17,10.251 8.856,-6.773 19.92,-10.805 31.93,-10.805 8.968,0 17.409,2.25 24.798,6.206 1.991,-2.112 4.801,-3.442 7.933,-3.442 5.053,0 9.293,3.436 10.54,8.095 0.68,0.471 1.334,0.975 1.963,1.509 1.166,-6.36 6.726,-11.183 13.422,-11.183 3.145,0 6.033,1.074 8.342,2.861 -3.727,0.081 -6.947,2.212 -8.58,5.309 1.009,-0.54 2.16,-0.847 3.384,-0.847 3.972,0 7.191,3.219 7.191,7.19 0,0.572 -0.074,1.125 -0.2,1.658 -0.904,-1.824 -2.779,-3.082 -4.953,-3.082 -2.652,0 -4.866,1.868 -5.404,4.358 C -2.4,-2.118 -1.315,-0.905 0,0" /></g><g
           transform="translate(325.6157,194.6738)"
           id="g84"><path
             id="path86"
             style="fill:none;stroke:#1a2f38;stroke-width:5;stroke-linecap:round;stroke-linejoin:miter;stroke-miterlimit:10;stroke-dasharray:none;stroke-opacity:1"
             d="M 0,0 C -1.899,3.313 -0.753,7.538 2.56,9.438" /></g><g
           transform="translate(458.9037,202.7744)"
           id="g88"><path
             id="path90"
             style="fill:none;stroke:#1a2f38;stroke-width:5;stroke-linecap:round;stroke-linejoin:miter;stroke-miterlimit:10;stroke-dasharray:none;stroke-opacity:1"
             d="M 0,0 C 3.06,-2.285 3.688,-6.618 1.402,-9.678" /></g><g
           transform="translate(330.9941,183.3183)"
           id="g92"><path
             id="path94"
             style="fill:#0c171c;fill-opacity:1;fill-rule:nonzero;stroke:none"
             d="M 0,0 C 0,0 0.724,-0.339 1.6,-0.965 2.319,-0.546 2.969,-0.02 3.526,0.594 2.15,2.357 0,3.357 0,3.357 -6.499,3.796 -11.734,8.804 -12.525,15.197 -12.593,14.646 -12.64,14.087 -12.64,13.516 -12.64,6.337 -7.058,0.476 0,0" /></g><g
           transform="translate(345.4623,196.3769)"
           id="g96"><path
             id="path98"
             style="fill:#0c171c;fill-opacity:1;fill-rule:nonzero;stroke:none"
             d="m 0,0 c 0.005,0.153 0.017,0.304 0.017,0.457 0,0.567 -0.045,1.122 -0.113,1.671 C -0.197,1.317 -0.36,0.527 -0.598,-0.232 -0.402,-0.147 -0.2,-0.077 0,0" /></g><g
           transform="translate(451.037,211.6074)"
           id="g100"><path
             id="path102"
             style="fill:#0c171c;fill-opacity:1;fill-rule:nonzero;stroke:none"
             d="M 0,0 C 0.022,0.623 0.047,1.244 0.047,1.871 0.047,2.435 0.022,2.991 0.005,3.55 -0.034,2.337 -0.099,1.13 -0.217,-0.062 -0.146,-0.038 -0.072,-0.021 0,0" /></g><g
           transform="translate(349.5688,197.3896)"
           id="g104"><path
             id="path106"
             style="fill:#0c171c;fill-opacity:1;fill-rule:nonzero;stroke:none"
             d="m 0,0 c -2.195,5.514 -3.482,11.483 -3.685,17.729 -0.017,-0.545 -0.042,-1.089 -0.042,-1.64 0,-5.678 0.921,-11.136 2.589,-16.258 C -0.763,-0.101 -0.384,-0.042 0,0" /></g><g
           transform="translate(333.6445,175.165)"
           id="g108"><path
             id="path110"
             style="fill:#0c171c;fill-opacity:1;fill-rule:nonzero;stroke:none"
             d="m 0,0 c -5.058,-0.604 -8.626,2.326 -10.24,4.646 -0.638,0.54 -1.202,1.164 -1.649,1.875 0.011,-4.856 3.771,-8.811 8.537,-9.17 2.615,0 3.009,1.578 3.352,2.649" /></g><g
           transform="translate(465.1435,190.0849)"
           id="g112"><path
             id="path114"
             style="fill:#0c171c;fill-opacity:1;fill-rule:nonzero;stroke:none"
             d="m 0,0 c -1.194,-1.354 -2.221,-2.065 -3.021,-2.619 -0.375,-0.26 3.784,0.891 4.042,0.643 1.451,1.886 2.196,4.92 2.196,7.322 C 3.217,5.918 3.17,6.478 3.101,7.03 2.767,4.365 1.69,1.916 0,0" /></g><g
           transform="translate(465.1435,186.7265)"
           id="g116"><path
             id="path118"
             style="fill:#0c171c;fill-opacity:1;fill-rule:nonzero;stroke:none"
             d="M 0,0 C 0.372,0.436 0.707,0.902 1.021,1.383 0.86,1.392 0.701,1.406 0.538,1.406 c -1.256,0 -2.453,-0.242 -3.559,-0.667 -0.655,-0.417 -1.344,-0.783 -2.069,-1.083 -1.315,-0.905 -2.4,-2.118 -3.154,-3.536 0.159,-0.733 0.476,-1.401 0.894,-1.995 0.638,0.835 1.392,1.577 2.26,2.174 0.725,0.3 1.414,0.666 2.069,1.082 1.106,0.426 2.303,0.668 3.559,0.668 0.607,0 1.198,-0.063 1.775,-0.167 C 1.628,-1.324 0.848,-0.619 0,0" /></g><g
           transform="translate(457.1196,165.4004)"
           id="g120"><path
             id="path122"
             style="fill:#0c171c;fill-opacity:1;fill-rule:nonzero;stroke:none"
             d="m 0,0 c -6.696,0 -12.256,4.823 -13.422,11.183 -0.629,-0.535 -1.283,-1.038 -1.963,-1.509 -1.247,-4.659 -5.487,-8.095 -10.54,-8.095 -3.132,0 -5.942,1.33 -7.933,3.442 -7.389,-3.957 -15.83,-6.206 -24.798,-6.206 -12.01,0 -23.074,4.032 -31.93,10.804 -2.422,-6.007 -8.296,-10.251 -15.17,-10.251 -6.689,0 -12.432,4.019 -14.969,9.77 -0.765,-1.565 -1.064,-4.985 0.509,-7.576 0.131,0.589 0.323,1.169 0.811,1.818 3.49,-5.127 8.152,-7.365 13.649,-7.369 6.874,-0.006 12.748,4.244 15.17,10.251 8.856,-6.773 19.92,-10.805 31.93,-10.805 8.968,0 17.409,2.25 24.798,6.206 1.991,-2.112 4.801,-3.442 7.933,-3.442 5.053,0 9.293,3.436 10.54,8.095 0.68,0.471 1.334,0.975 1.963,1.509 1.166,-6.36 6.726,-11.183 13.422,-11.183 3.145,0 6.033,1.074 8.342,2.861 C 6.777,-0.463 5.305,-0.064 3.999,0.612 2.733,0.222 1.395,0 0,0" /></g><g
           transform="translate(337.4077,163.206)"
           id="g124"><path
             id="path126"
             style="fill:#0c171c;fill-opacity:1;fill-rule:nonzero;stroke:none"
             d="m 0,0 c -0.32,0.457 -0.523,1.159 -0.587,1.752 -1.835,0.092 -3.851,1.536 -4.968,3.127 -0.739,1.053 -1.2,2.212 -1.426,3.397 -0.446,-2.27 -0.01,-4.711 1.426,-6.755 1.847,-2.63 4.871,-3.932 7.86,-3.715 C 1.259,-1.645 0.725,-1.032 0,0" /></g><g
           transform="translate(467.2377,178.1816)"
           id="g128"><path
             id="path130"
             style="fill:#0c171c;fill-opacity:1;fill-rule:nonzero;stroke:none"
             d="m 0,0 c -0.776,-3.133 -3.332,-5.585 -6.681,-5.984 -3.091,-0.37 -6.859,1.074 -7.868,1.614 0.934,-1.773 4.261,-4.776 8.353,-4.403 3.606,0.387 6.415,3.438 6.415,7.147 0,0.571 -0.074,1.125 -0.2,1.658 C 0.014,0.021 0.006,0.011 0,0" /></g><path
           id="path132"
           style="fill:#e9b49a;fill-opacity:1;fill-rule:nonzero;stroke:none"
           d="m 419.718,168.721 h -35.542 v 35.761 h 35.542 z" /><g
           transform="translate(419.7177,169.0449)"
           id="g134"><path
             id="path136"
             style="fill:#e9b49a;fill-opacity:1;fill-rule:nonzero;stroke:none"
             d="m 0,0 c 0,-9.815 -7.957,-17.771 -17.771,-17.771 -9.815,0 -17.771,7.956 -17.771,17.771 0,9.814 7.956,17.771 17.771,17.771 C -7.957,17.771 0,9.814 0,0" /></g><g
           id="g138"><g
             id="g140" /><g
             id="g152"><g
               style="opacity:0.33999604"
               id="g150"
               clip-path="url(#clipPath144)"><g
                 id="g148"
                 transform="translate(384.1757,171.9531)"><path
                   id="path146"
                   style="fill:#d98480;fill-opacity:1;fill-rule:nonzero;stroke:none"
                   d="m 0,0 c 3.579,-0.745 7.285,-1.141 11.085,-1.141 8.804,0 17.109,2.116 24.457,5.845 V 31.685 L 0,31.685 Z" /></g></g></g></g><g
           transform="translate(451.5268,237.3232)"
           id="g154"><path
             id="path156"
             style="fill:#eabea3;fill-opacity:1;fill-rule:nonzero;stroke:none"
             d="m 0,0 c 0,-29.893 -24.233,-54.126 -54.126,-54.126 -29.894,0 -54.126,24.233 -54.126,54.126 0,29.894 24.232,54.127 54.126,54.127 C -24.233,54.127 0,29.894 0,0" /></g><g
           transform="translate(449.3867,228.7539)"
           id="g158"><path
             id="path160"
             style="fill:#eabea3;fill-opacity:1;fill-rule:nonzero;stroke:none"
             d="m 0,0 c 0,-29.893 -24.233,-54.126 -54.126,-54.126 -29.893,0 -54.126,24.233 -54.126,54.126 0,29.894 24.233,54.127 54.126,54.127 C -24.233,54.127 0,29.894 0,0" /></g><g
           transform="translate(427.8622,271.957)"
           id="g162"><path
             id="path164"
             style="fill:#e8b39e;fill-opacity:1;fill-rule:nonzero;stroke:none"
             d="m 0,0 c 10.781,-9.895 17.542,-24.098 17.542,-39.884 0,-29.892 -24.233,-54.126 -54.126,-54.126 -12.243,0 -23.533,4.07 -32.602,10.924 9.635,-8.842 22.477,-14.243 36.584,-14.243 29.894,0 54.126,24.233 54.126,54.126 C 21.524,-25.553 13.073,-9.881 0,0" /></g><g
           id="g166"><g
             id="g168" /><g
             id="g180"><g
               style="opacity:0.14999402"
               id="g178"
               clip-path="url(#clipPath172)"><g
                 id="g176"
                 transform="translate(462.1855,260.1689)"><path
                   id="path174"
                   style="fill:#1a2f38;fill-opacity:1;fill-rule:nonzero;stroke:none"
                   d="m 0,0 c -3.248,34.039 -31.911,60.664 -66.801,60.664 -35.99,0 -65.358,-28.329 -67.034,-63.903 -3.558,-5.346 -6.185,-11.36 -7.667,-17.812 9.03,-14.728 23.281,-26.589 40.557,-33.653 -0.86,6.373 -4.64,11.817 -9.948,14.949 1.633,0.792 3.155,1.774 4.556,2.9 0.049,0.04 0.099,0.079 0.148,0.12 0.292,0.237 0.577,0.481 0.857,0.733 0.048,0.043 0.095,0.087 0.143,0.131 1.163,1.061 2.219,2.235 3.155,3.507 0.073,0.098 0.148,0.197 0.22,0.297 0.175,0.247 0.344,0.499 0.511,0.753 0.095,0.144 0.19,0.291 0.282,0.437 0.149,0.239 0.295,0.479 0.437,0.723 0.101,0.175 0.197,0.353 0.294,0.531 0.126,0.23 0.253,0.46 0.371,0.695 0.115,0.229 0.221,0.463 0.329,0.696 0.131,0.282 0.258,0.566 0.379,0.854 0.137,0.33 0.272,0.663 0.395,1 0.065,0.181 0.123,0.365 0.185,0.548 0.095,0.283 0.188,0.566 0.273,0.852 0.056,0.192 0.108,0.384 0.159,0.578 0.078,0.291 0.151,0.584 0.219,0.879 0.042,0.187 0.084,0.374 0.122,0.562 0.066,0.326 0.123,0.655 0.175,0.985 0.026,0.162 0.055,0.322 0.078,0.483 0.068,0.494 0.125,0.992 0.162,1.495 v 10e-4 c 0,0 -0.01,0.07 -0.027,0.195 0,0.005 -0.001,0.013 -0.002,0.018 -0.008,0.063 -0.018,0.136 -0.029,0.224 v 0.001 c -0.012,0.091 -0.025,0.194 -0.04,0.307 0,0.004 -0.001,0.01 -0.001,0.014 -0.043,0.346 -0.097,0.791 -0.151,1.288 0,0.002 0,0.004 0,0.007 -0.019,0.167 -0.037,0.338 -0.055,0.516 -0.118,1.159 -0.225,2.499 -0.225,3.552 0,0.868 0.045,1.726 0.114,2.576 0.041,0.504 0.094,1.006 0.158,1.504 l 10e-4,0.009 c 0.065,0.496 0.14,0.989 0.227,1.478 0.001,0.003 0.002,0.006 0.002,0.01 1.218,6.82 4.629,12.88 9.476,17.426 0.056,0.052 0.109,0.105 0.164,0.156 0.273,0.253 0.554,0.498 0.836,0.741 0.093,0.079 0.184,0.161 0.278,0.241 0.26,0.218 0.526,0.43 0.793,0.64 0.123,0.097 0.244,0.195 0.368,0.289 0.252,0.194 0.51,0.38 0.767,0.565 0.145,0.104 0.289,0.209 0.436,0.309 0.248,0.172 0.499,0.338 0.752,0.502 0.164,0.108 0.329,0.214 0.496,0.319 0.243,0.151 0.49,0.298 0.738,0.445 0.182,0.106 0.365,0.212 0.549,0.315 0.241,0.135 0.485,0.267 0.73,0.396 0.197,0.103 0.397,0.206 0.597,0.306 0.239,0.119 0.479,0.235 0.721,0.348 0.213,0.1 0.428,0.196 0.644,0.291 0.237,0.105 0.475,0.207 0.714,0.306 0.227,0.093 0.455,0.181 0.684,0.269 0.236,0.091 0.472,0.181 0.71,0.266 0.24,0.085 0.482,0.165 0.725,0.245 0.233,0.076 0.466,0.153 0.702,0.225 0.253,0.077 0.509,0.147 0.764,0.217 0.232,0.064 0.462,0.128 0.696,0.187 0.266,0.067 0.536,0.126 0.805,0.187 0.227,0.049 0.453,0.103 0.681,0.149 0.283,0.056 0.569,0.103 0.854,0.152 0.221,0.037 0.44,0.079 0.663,0.113 0.304,0.045 0.612,0.08 0.92,0.116 0.206,0.025 0.411,0.054 0.618,0.075 0.348,0.034 0.699,0.057 1.05,0.08 0.172,0.011 0.341,0.028 0.513,0.037 0.525,0.026 1.053,0.04 1.585,0.04 7.067,0 13.592,-2.326 18.85,-6.254 1.904,1.859 4.503,3.007 7.373,3.007 0.342,0 0.679,-0.019 1.013,-0.051 0.109,-0.01 0.216,-0.029 0.325,-0.043 0.221,-0.028 0.442,-0.058 0.659,-0.1 0.128,-0.025 0.254,-0.055 0.379,-0.084 0.194,-0.044 0.386,-0.093 0.575,-0.148 0.132,-0.038 0.262,-0.079 0.391,-0.122 0.178,-0.059 0.353,-0.125 0.527,-0.193 0.13,-0.052 0.261,-0.103 0.389,-0.159 0.165,-0.073 0.326,-0.154 0.487,-0.235 0.127,-0.064 0.256,-0.126 0.381,-0.195 0.154,-0.086 0.301,-0.181 0.45,-0.273 0.261,-0.163 0.514,-0.337 0.758,-0.521 0.102,-0.077 0.209,-0.15 0.308,-0.23 0.151,-0.123 0.294,-0.255 0.437,-0.386 0.085,-0.077 0.173,-0.151 0.255,-0.232 0.144,-0.139 0.281,-0.285 0.417,-0.432 0.072,-0.078 0.144,-0.156 0.214,-0.236 0.136,-0.157 0.267,-0.319 0.394,-0.484 0.058,-0.074 0.114,-0.15 0.17,-0.226 0.129,-0.178 0.255,-0.359 0.373,-0.544 0.04,-0.062 0.076,-0.125 0.114,-0.188 0.125,-0.206 0.248,-0.415 0.359,-0.63 0.008,-0.013 0.013,-0.027 0.02,-0.041 0.396,-0.773 0.701,-1.601 0.898,-2.471 0.17,-0.753 0.268,-1.533 0.268,-2.336 0,-0.708 -0.07,-1.4 -0.203,-2.069 0,0 -0.013,-0.089 -0.03,-0.228 0,-10e-4 -0.001,-0.002 -0.001,-0.003 C -29.896,1.521 -29.899,1.489 -29.903,1.456 -29.91,1.404 -29.917,1.349 -29.924,1.285 -29.928,1.249 -29.932,1.214 -29.937,1.174 -29.946,1.095 -29.955,1.01 -29.964,0.92 -29.967,0.89 -29.97,0.863 -29.974,0.833 -29.986,0.705 -30,0.57 -30.012,0.429 -30.013,0.417 -30.013,0.405 -30.014,0.394 -30.025,0.27 -30.035,0.141 -30.043,0.01 c -0.003,-0.04 -0.006,-0.08 -0.008,-0.121 -0.007,-0.109 -0.012,-0.217 -0.017,-0.326 -0.002,-0.043 -0.004,-0.086 -0.006,-0.129 -0.005,-0.147 -0.009,-0.292 -0.009,-0.433 0,-0.404 0.02,-0.804 0.051,-1.2 0.011,-0.138 0.031,-0.274 0.045,-0.41 0.028,-0.254 0.056,-0.508 0.096,-0.758 0.027,-0.166 0.059,-0.33 0.091,-0.494 0.042,-0.214 0.086,-0.427 0.136,-0.638 0.042,-0.179 0.088,-0.355 0.138,-0.532 0.052,-0.188 0.109,-0.373 0.168,-0.559 0.059,-0.186 0.12,-0.373 0.187,-0.556 0.059,-0.163 0.124,-0.321 0.188,-0.48 0.079,-0.197 0.157,-0.395 0.244,-0.589 0.051,-0.112 0.109,-0.221 0.162,-0.331 0.452,-0.937 0.987,-1.828 1.612,-2.647 -0.478,-1.788 -0.792,-3.642 -0.943,-5.541 v -10e-4 c -0.023,-0.285 -0.04,-0.571 -0.055,-0.857 -0.031,-0.529 -0.053,-1.06 -0.053,-1.597 0,-4.46 0.399,-8.992 2.65,-12.525 v -0.001 c 3.481,-5.464 7.004,-11.112 7.533,-17.964 v 0.001 c 0.329,-4.804 -1.113,-8.696 -1.097,-9.231 11.047,6.036 21.648,21.803 28.739,31.405 C 9.246,-16.566 5.681,-7.435 0,0" /></g></g></g></g><g
           transform="translate(428.6347,212.5478)"
           id="g182"><path
             id="path184"
             style="fill:#e27d75;fill-opacity:1;fill-rule:nonzero;stroke:none"
             d="m 0,0 c 0,-3.522 -2.855,-6.378 -6.377,-6.378 -3.522,0 -6.377,2.856 -6.377,6.378 0,3.521 2.855,6.377 6.377,6.377 C -2.855,6.377 0,3.521 0,0" /></g><g
           transform="translate(368.06,212.5478)"
           id="g186"><path
             id="path188"
             style="fill:#e27d75;fill-opacity:1;fill-rule:nonzero;stroke:none"
             d="m 0,0 c 0,-3.522 -2.855,-6.378 -6.377,-6.378 -3.522,0 -6.377,2.856 -6.377,6.378 0,3.521 2.855,6.377 6.377,6.377 C -2.855,6.377 0,3.521 0,0" /></g><g
           transform="translate(424.6498,241.0215)"
           id="g190"><path
             id="path192"
             style="fill:#233f4b;fill-opacity:1;fill-rule:nonzero;stroke:none"
             d="m 0,0 h -15.968 c -1.849,0 -3.362,1.513 -3.362,3.361 0,1.849 1.513,3.362 3.362,3.362 L 0,6.723 C 1.849,6.723 3.361,5.21 3.361,3.361 3.361,1.513 1.849,0 0,0" /></g><g
           transform="translate(424.6498,242.7177)"
           id="g194"><path
             id="path196"
             style="fill:#1a2f38;fill-opacity:1;fill-rule:nonzero;stroke:none"
             d="m 0,0 h -15.968 c -1.554,0 -2.859,1.074 -3.239,2.514 -0.072,-0.273 -0.123,-0.554 -0.123,-0.849 0,-1.849 1.513,-3.361 3.362,-3.361 H 0 c 1.849,0 3.361,1.512 3.361,3.361 0,0.295 -0.05,0.576 -0.122,0.849 C 2.858,1.074 1.554,0 0,0" /></g><g
           transform="translate(408.4238,245.2314)"
           id="g198"><path
             id="path200"
             style="fill:none;stroke:#38525f;stroke-width:2;stroke-linecap:round;stroke-linejoin:miter;stroke-miterlimit:10;stroke-dasharray:none;stroke-opacity:1"
             d="M 0,0 H 13.908" /></g><g
           transform="translate(376.4164,241.0215)"
           id="g202"><path
             id="path204"
             style="fill:#233f4b;fill-opacity:1;fill-rule:nonzero;stroke:none"
             d="m 0,0 h -15.968 c -1.848,0 -3.361,1.513 -3.361,3.361 0,1.849 1.513,3.362 3.361,3.362 L 0,6.723 C 1.849,6.723 3.361,5.21 3.361,3.361 3.361,1.513 1.849,0 0,0" /></g><g
           transform="translate(376.4164,242.7177)"
           id="g206"><path
             id="path208"
             style="fill:#1a2f38;fill-opacity:1;fill-rule:nonzero;stroke:none"
             d="m 0,0 h -15.968 c -1.554,0 -2.859,1.074 -3.239,2.514 -0.072,-0.273 -0.122,-0.554 -0.122,-0.849 0,-1.849 1.513,-3.361 3.361,-3.361 H 0 c 1.849,0 3.361,1.512 3.361,3.361 0,0.295 -0.05,0.576 -0.122,0.849 C 2.859,1.074 1.554,0 0,0" /></g><g
           transform="translate(360.1909,245.2314)"
           id="g210"><path
             id="path212"
             style="fill:none;stroke:#38525f;stroke-width:2;stroke-linecap:round;stroke-linejoin:miter;stroke-miterlimit:10;stroke-dasharray:none;stroke-opacity:1"
             d="M 0,0 H 13.908" /></g><g
           transform="translate(408.2299,230.1172)"
           id="g214"><path
             id="path216"
             style="fill:#ffffff;fill-opacity:1;fill-rule:nonzero;stroke:none"
             d="m 0,0 c 1.44,-3.207 4.655,-5.444 8.399,-5.444 3.804,0 7.068,2.307 8.473,5.597 C 15.431,3.36 12.216,5.598 8.473,5.598 4.669,5.598 1.405,3.291 0,0" /></g><g
           transform="translate(422.0507,229.9746)"
           id="g218"><path
             id="path220"
             style="fill:#162831;fill-opacity:1;fill-rule:nonzero;stroke:none"
             d="m 0,0 c 0,-2.91 -2.359,-5.27 -5.27,-5.27 -2.91,0 -5.269,2.36 -5.269,5.27 0,2.91 2.359,5.27 5.269,5.27 C -2.359,5.27 0,2.91 0,0" /></g><g
           transform="translate(425.1015,230.2705)"
           id="g222"><path
             id="path224"
             style="fill:none;stroke:#162831;stroke-width:3;stroke-linecap:round;stroke-linejoin:miter;stroke-miterlimit:10;stroke-dasharray:none;stroke-opacity:1"
             d="m 0,0 c -1.44,3.207 -4.655,5.444 -8.399,5.444 -3.804,0 -7.068,-2.306 -8.473,-5.597" /></g><g
           transform="translate(416.7026,235.7148)"
           id="g226"><path
             id="path228"
             style="fill:none;stroke:#233f4b;stroke-width:1;stroke-linecap:round;stroke-linejoin:miter;stroke-miterlimit:10;stroke-dasharray:none;stroke-opacity:1"
             d="M 0,0 C -2.074,0 -3.988,-0.686 -5.527,-1.844" /></g><g
           transform="translate(419.3705,230.8213)"
           id="g230"><path
             id="path232"
             style="fill:#ffffff;fill-opacity:1;fill-rule:nonzero;stroke:none"
             d="m 0,0 c 0,-0.691 -0.561,-1.252 -1.252,-1.252 -0.691,0 -1.252,0.561 -1.252,1.252 0,0.691 0.561,1.252 1.252,1.252 C -0.561,1.252 0,0.691 0,0" /></g><g
           transform="translate(420.7289,228.8799)"
           id="g234"><path
             id="path236"
             style="fill:#ffffff;fill-opacity:1;fill-rule:nonzero;stroke:none"
             d="m 0,0 c 0,-0.396 -0.321,-0.718 -0.718,-0.718 -0.396,0 -0.718,0.322 -0.718,0.718 0,0.396 0.322,0.718 0.718,0.718 C -0.321,0.718 0,0.396 0,0" /></g><g
           transform="translate(358.7089,230.1172)"
           id="g238"><path
             id="path240"
             style="fill:#ffffff;fill-opacity:1;fill-rule:nonzero;stroke:none"
             d="m 0,0 c 1.44,-3.207 4.656,-5.444 8.399,-5.444 3.804,0 7.068,2.307 8.473,5.597 C 15.431,3.36 12.216,5.598 8.473,5.598 4.669,5.598 1.405,3.291 0,0" /></g><g
           transform="translate(372.5297,229.9746)"
           id="g242"><path
             id="path244"
             style="fill:#162831;fill-opacity:1;fill-rule:nonzero;stroke:none"
             d="m 0,0 c 0,-2.91 -2.359,-5.27 -5.27,-5.27 -2.91,0 -5.269,2.36 -5.269,5.27 0,2.91 2.359,5.27 5.269,5.27 C -2.359,5.27 0,2.91 0,0" /></g><g
           transform="translate(375.5805,230.2705)"
           id="g246"><path
             id="path248"
             style="fill:none;stroke:#162831;stroke-width:3;stroke-linecap:round;stroke-linejoin:miter;stroke-miterlimit:10;stroke-dasharray:none;stroke-opacity:1"
             d="m 0,0 c -1.44,3.207 -4.655,5.444 -8.399,5.444 -3.804,0 -7.068,-2.306 -8.473,-5.597" /></g><g
           transform="translate(367.1816,235.7148)"
           id="g250"><path
             id="path252"
             style="fill:none;stroke:#233f4b;stroke-width:1;stroke-linecap:round;stroke-linejoin:miter;stroke-miterlimit:10;stroke-dasharray:none;stroke-opacity:1"
             d="M 0,0 C -2.074,0 -3.988,-0.686 -5.527,-1.844" /></g><g
           transform="translate(369.85,230.8213)"
           id="g254"><path
             id="path256"
             style="fill:#ffffff;fill-opacity:1;fill-rule:nonzero;stroke:none"
             d="m 0,0 c 0,-0.691 -0.561,-1.252 -1.252,-1.252 -0.691,0 -1.252,0.561 -1.252,1.252 0,0.691 0.561,1.252 1.252,1.252 C -0.561,1.252 0,0.691 0,0" /></g><g
           transform="translate(371.2079,228.8799)"
           id="g258"><path
             id="path260"
             style="fill:#ffffff;fill-opacity:1;fill-rule:nonzero;stroke:none"
             d="m 0,0 c 0,-0.396 -0.321,-0.718 -0.718,-0.718 -0.396,0 -0.718,0.322 -0.718,0.718 0,0.396 0.322,0.718 0.718,0.718 C -0.321,0.718 0,0.396 0,0" /></g><g
           transform="translate(380.9013,207.0986)"
           id="g262"><path
             id="path264"
             style="fill:#822148;fill-opacity:1;fill-rule:nonzero;stroke:none"
             d="m 0,0 v -3.805 c 0,-7.458 6.102,-13.559 13.56,-13.559 7.458,0 13.56,6.101 13.56,13.559 V 0 Z" /></g><g
           transform="translate(396.8349,193.4267)"
           id="g266"><path
             id="path268"
             style="fill:#561026;fill-opacity:1;fill-rule:nonzero;stroke:none"
             d="m 0,0 h -5.25 c -1.688,0 -3.069,1.381 -3.069,3.069 0,1.688 1.381,3.069 3.069,3.069 H 0 C 1.688,6.138 3.069,4.757 3.069,3.069 3.069,1.381 1.688,0 0,0" /></g><g
           transform="translate(404.7953,198.3427)"
           id="g270"><path
             id="path272"
             style="fill:#bc2753;fill-opacity:1;fill-rule:nonzero;stroke:none"
             d="m 0,0 c -6.077,0 -11.397,-3.188 -14.417,-7.973 1.29,-0.411 2.661,-0.635 4.083,-0.635 5.65,0 10.517,3.506 12.546,8.448 C 1.486,-0.065 0.751,0 0,0" /></g><g
           transform="translate(380.9013,203.2334)"
           id="g274"><path
             id="path276"
             style="fill:#ffffff;fill-opacity:1;fill-rule:nonzero;stroke:none"
             d="M 0,0 C 0,-0.069 0.012,-0.138 0.014,-0.207 H 27.106 C 27.107,-0.138 27.12,-0.069 27.12,0 V 3.865 H 0 Z" /></g><g
           transform="translate(462.1655,187.165)"
           id="g278"><path
             id="path280"
             style="fill:#233f4b;fill-opacity:1;fill-rule:nonzero;stroke:none"
             d="m 0,0 c -3.709,0 -6.716,3.007 -6.716,6.716 0,2.164 1.069,4.28 2.617,5.311 10.393,10.314 15.703,21.627 15.703,35.791 0,11.008 -3.693,21.149 -9.897,29.268 -3.248,34.039 -33.598,60.664 -68.488,60.664 -35.99,0 -65.358,-28.329 -67.034,-63.904 -5.716,-8.589 -9.053,-18.897 -9.053,-29.988 0,-15.8 6.764,-30.017 17.55,-39.925 -1.133,-3.7 -4.1,-6.595 -7.848,-7.621 1.906,-1.336 4.223,-2.126 6.727,-2.126 1.863,0 3.616,0.448 5.178,1.223 -1.341,-2.195 -2.128,-4.766 -2.128,-7.527 0,-7.994 6.48,-14.475 14.474,-14.475 6.105,0 11.437,3.868 13.427,9.142 -1.634,-1.942 -3.512,-3.134 -6.324,-3.167 -4.203,-0.049 -6.874,3.327 -6.874,7.196 0,2.385 1.157,4.498 2.94,5.812 l -0.023,0.056 c 4.24,2.851 7.036,7.684 7.036,13.177 0,3.256 -0.984,6.28 -2.665,8.8 0.43,1.655 0.66,3.392 0.66,5.182 0,7.551 -4.071,14.148 -10.135,17.726 7.488,3.631 12.801,11.045 13.45,19.76 0,0 -0.53,3.777 -0.53,6.122 0,17.413 14.117,31.53 31.531,31.53 7.068,0 13.592,-2.326 18.85,-6.254 1.904,1.859 4.503,3.007 7.373,3.007 5.833,0 12.248,-4.728 12.248,-10.56 0,-0.708 -0.07,-1.4 -0.203,-2.069 0,0 -0.221,-1.551 -0.221,-2.78 0,-3.46 1.169,-6.64 3.116,-9.194 -0.681,-2.552 -1.05,-5.231 -1.05,-7.997 0,-4.459 0.949,-8.696 2.65,-12.525 4.75,-5.455 7.633,-12.58 7.633,-20.382 0,-2.834 -0.343,-5.54 -0.994,-8.104 -7.095,-3.953 -12.211,-11.024 -13.498,-19.363 -0.925,-1.973 -3.236,-4.525 -3.236,-6.947 0,-8.993 8.977,-16.283 17.97,-16.283 4.893,0 9.27,2.168 12.255,5.584 -0.888,-0.192 -1.807,-0.301 -2.754,-0.301 -6.381,0 -11.669,4.629 -12.721,10.71 2.362,-2.447 5.671,-3.975 9.342,-3.975 7.176,0 12.993,5.816 12.993,12.992 0,0.193 -0.013,0.384 -0.021,0.575 C 2.332,0.321 1.205,0 0,0" /></g><g
           transform="translate(350.8364,228.1748)"
           id="g282"><path
             id="path284"
             style="fill:#1a2f38;fill-opacity:1;fill-rule:nonzero;stroke:none"
             d="m 0,0 c 1.311,-0.773 2.978,-0.459 4.081,-1.494 5.535,4.022 9.287,10.348 9.825,17.575 0,0 -0.16,1.148 -0.305,2.57 C 12.257,10.966 7.271,4.056 0,0" /></g><g
           transform="translate(438.5063,238.4521)"
           id="g286"><path
             id="path288"
             style="fill:#1a2f38;fill-opacity:1;fill-rule:nonzero;stroke:none"
             d="M 0,0 C -1.833,2.876 -2.26,6.507 -2.542,10.064 -2.607,9.254 -2.65,8.437 -2.65,7.609 c 0,-4.46 0.399,-8.991 2.65,-12.525 3.48,-5.464 7.004,-11.112 7.533,-17.964 0.06,0.822 0.1,1.652 0.1,2.497 C 7.633,-12.58 3.886,-6.102 0,0" /></g><g
           transform="translate(436.1435,255.1621)"
           id="g290"><path
             id="path292"
             style="fill:#1a2f38;fill-opacity:1;fill-rule:nonzero;stroke:none"
             d="m 0,0 c 0.177,1.297 0.432,2.569 0.763,3.811 -1.494,1.96 -2.524,4.29 -2.926,6.831 C -2.223,10.17 -2.354,9.038 -2.354,8.09 -2.354,5.111 -1.483,2.344 0,0" /></g><g
           transform="translate(335.1796,192.709)"
           id="g294"><path
             id="path296"
             style="fill:#1a2f38;fill-opacity:1;fill-rule:nonzero;stroke:none"
             d="m 0,0 c 0.72,0.996 1.299,2.102 1.667,3.304 -10.236,9.403 -16.838,22.691 -17.485,37.527 -0.038,-0.835 -0.064,-1.673 -0.064,-2.517 C -15.882,23.348 -9.807,9.809 0,0" /></g><g
           transform="translate(356.3964,184.5273)"
           id="g298"><path
             id="path300"
             style="fill:#1a2f38;fill-opacity:1;fill-rule:nonzero;stroke:none"
             d="m 0,0 0.023,-0.057 c -1.783,-1.313 -2.94,-3.427 -2.94,-5.811 0,-0.884 0.146,-1.738 0.411,-2.535 0.484,1.383 1.371,2.578 2.529,3.43 L 0,-4.916 c 4.24,2.851 7.036,7.685 7.036,13.177 0,0.842 -0.069,1.667 -0.195,2.473 C 6.149,6.268 3.598,2.418 0,0" /></g><g
           transform="translate(344.2338,189.1259)"
           id="g302"><path
             id="path304"
             style="fill:#1a2f38;fill-opacity:1;fill-rule:nonzero;stroke:none"
             d="m 0,0 c -3.734,-6.041 -9.904,-6.954 -15.234,-5.648 1.906,-1.337 4.222,-2.127 6.726,-2.127 1.106,0 2.165,0.173 3.175,0.463 C -1.967,-6.208 0,-3.934 0,0" /></g><g
           transform="translate(458.0663,204.1074)"
           id="g306"><path
             id="path308"
             style="fill:#1a2f38;fill-opacity:1;fill-rule:nonzero;stroke:none"
             d="m 0,0 c -1.548,-1.03 -2.617,-3.147 -2.617,-5.312 0,-0.864 0.169,-1.687 0.467,-2.446 0.455,1.192 1.212,2.218 2.15,2.843 10.394,10.313 15.703,21.627 15.703,35.791 0,0.785 -0.024,1.564 -0.061,2.34 C 15.031,20.243 9.756,9.681 0,0" /></g><g
           transform="translate(452.5034,179.3896)"
           id="g310"><path
             id="path312"
             style="fill:#1a2f38;fill-opacity:1;fill-rule:nonzero;stroke:none"
             d="m 0,0 c -3.67,0 -8.559,1.342 -12.457,5.451 0.574,-3.314 2.458,-7.586 8.107,-9.601 1.361,-0.487 2.821,-0.765 4.35,-0.765 7.176,0 12.993,5.816 12.993,12.992 0,0.194 -0.013,0.384 -0.021,0.575 C 10.899,2.466 5.495,0 0,0" /></g><g
           transform="translate(451.9555,168.3623)"
           id="g314"><path
             id="path316"
             style="fill:#1a2f38;fill-opacity:1;fill-rule:nonzero;stroke:none"
             d="m 0,0 c -1.739,-0.637 -3.614,-0.99 -5.574,-0.99 -8.156,0 -14.892,6.003 -16.078,13.827 -0.13,-0.816 -1.892,-1.645 -1.892,-2.459 0,-8.993 8.977,-16.283 17.97,-16.283 4.893,0 9.27,2.168 12.255,5.585 C 5.793,-0.514 4.874,-0.622 3.927,-0.622 2.556,-0.622 1.239,-0.396 0,0" /></g><g
           transform="translate(360.3539,166.5468)"
           id="g318"><path
             id="path320"
             style="fill:#1a2f38;fill-opacity:1;fill-rule:nonzero;stroke:none"
             d="m 0,0 c -0.492,-0.006 -0.961,0.039 -1.409,0.123 -1.754,-0.754 -3.68,-1.182 -5.694,-1.182 -7.159,0 -13.088,5.202 -14.252,12.029 -0.141,-0.803 -0.223,-1.626 -0.223,-2.47 0,-7.994 6.481,-14.475 14.475,-14.475 6.104,0 11.436,3.869 13.427,9.142 C 4.689,1.226 2.811,0.033 0,0" /></g><g
           transform="translate(433.9467,270.4355)"
           id="g322"><path
             id="path324"
             style="fill:#1a2f38;fill-opacity:1;fill-rule:nonzero;stroke:none"
             d="m 0,0 c 0.036,0.31 0.065,0.512 0.065,0.512 0.133,0.669 0.203,1.36 0.203,2.068 0,5.833 -6.415,10.561 -12.248,10.561 -2.871,0 -5.47,-1.149 -7.374,-3.007 -5.257,3.928 -11.782,6.254 -18.85,6.254 -17.413,0 -31.53,-14.117 -31.53,-31.531 0,-0.698 0.048,-1.524 0.114,-2.339 1.311,16.208 14.871,28.955 31.416,28.955 7.068,0 13.593,-2.327 18.85,-6.254 1.904,1.858 4.503,3.007 7.374,3.007 C -6.951,8.226 -1.064,4.707 0,0" /></g><g
           transform="translate(343.3442,263.4892)"
           id="g326"><path
             id="path328"
             style="fill:none;stroke:#38525f;stroke-width:14;stroke-linecap:round;stroke-linejoin:miter;stroke-miterlimit:10;stroke-dasharray:none;stroke-opacity:1"
             d="M 0,0 C 0,25.773 20.894,46.667 46.667,46.667" /></g><g
           transform="translate(347.0361,200.4961)"
           id="g330"><path
             id="path332"
             style="fill:none;stroke:#38525f;stroke-width:5;stroke-linecap:round;stroke-linejoin:miter;stroke-miterlimit:10;stroke-dasharray:none;stroke-opacity:1"
             d="M 0,0 C -3.566,-1.365 -7.564,0.419 -8.929,3.985" /></g><g
           transform="translate(445.6464,262.2656)"
           id="g334"><path
             id="path336"
             style="fill:none;stroke:#38525f;stroke-width:5;stroke-linecap:round;stroke-linejoin:miter;stroke-miterlimit:10;stroke-dasharray:none;stroke-opacity:1"
             d="M 0,0 C -2.131,-0.815 -4.52,0.251 -5.335,2.382" /></g><g
           transform="translate(453.2543,185.875)"
           id="g338"><path
             id="path340"
             style="fill:none;stroke:#38525f;stroke-width:5;stroke-linecap:round;stroke-linejoin:miter;stroke-miterlimit:10;stroke-dasharray:none;stroke-opacity:1"
             d="M 0,0 C -3.248,-1.66 -7.227,-0.373 -8.887,2.875" /></g><g
           transform="translate(351.5126,237.5547)"
           id="g342"><path
             id="path344"
             style="fill:none;stroke:#38525f;stroke-width:5;stroke-linecap:round;stroke-linejoin:miter;stroke-miterlimit:10;stroke-dasharray:none;stroke-opacity:1"
             d="M 0,0 C -2.19,-4.907 -7.945,-7.11 -12.853,-4.92" /></g><g
           transform="translate(335.541,227.2675)"
           id="g346"><path
             id="path348"
             style="fill:#1a2f38;fill-opacity:1;fill-rule:nonzero;stroke:none"
             d="m 0,0 c 0,0 6.726,-3.114 15.295,0.907 0,0 7.725,1.281 4.081,-1.494 C 13.54,-5.031 4.478,-5.9 0,0" /></g><g
           transform="translate(349.2211,195.5879)"
           id="g350"><path
             id="path352"
             style="fill:#1a2f38;fill-opacity:1;fill-rule:nonzero;stroke:none"
             d="m 0,0 c 0,0 -6.187,-5.198 -12.374,0.425 0,0 -5.018,1.081 -1.668,-3.304 C -10.445,-7.586 -2.388,-7.165 0,0" /></g><g
           transform="translate(451.145,260.4834)"
           id="g354"><path
             id="path356"
             style="fill:#1a2f38;fill-opacity:1;fill-rule:nonzero;stroke:none"
             d="m 0,0 c 0,0 -1.686,-5.575 -7.342,-5.006 -6.596,0.665 -8.454,6.014 -8.454,6.014 l 0.795,-6.329 c 0,0 1.34,-3.56 7.836,-3.415 C 0.737,-8.561 0,0 0,0" /></g><g
           transform="translate(456.56,190.1836)"
           id="g358"><path
             id="path360"
             style="fill:#1a2f38;fill-opacity:1;fill-rule:nonzero;stroke:none"
             d="M 0,0 C 0,0 -5.841,5.607 0,12.363 L 1.506,9.009 C 1.506,9.009 -2.575,5.22 0,0" /></g><g
           transform="translate(393.664,226.6806)"
           id="g362"><path
             id="path364"
             style="fill:none;stroke:#e9af95;stroke-width:2;stroke-linecap:round;stroke-linejoin:miter;stroke-miterlimit:10;stroke-dasharray:none;stroke-opacity:1"
             d="m 0,0 v -3.863 c 0,0 -3.653,-0.562 -3.653,-4.495 0,-4.215 4.034,-4.004 4.034,-4.004" /></g><g
           transform="translate(384.1889,168.7207)"
           id="g366"><path
             id="path368"
             style="fill:#e9b49a;fill-opacity:1;fill-rule:nonzero;stroke:none"
             d="M 0,0 C -0.015,-2.076 -1.7,-3.755 -3.78,-3.755 V -9.044 H 8.484 V 0 Z" /></g><g
           transform="translate(419.705,168.7207)"
           id="g370"><path
             id="path372"
             style="fill:#e9b49a;fill-opacity:1;fill-rule:nonzero;stroke:none"
             d="M 0,0 C 0.016,-2.076 1.7,-3.755 3.78,-3.755 V -9.044 H -8.483 V 0 Z" /></g><path
           id="path374"
           style="fill:#ea9431;fill-opacity:1;fill-rule:nonzero;stroke:none"
           d="m 429.076,164.966 h 7.73 v -2.509 h -7.73 z" /><g
           transform="translate(369.7016,164.9658)"
           id="g376"><path
             id="path378"
             style="fill:#e9b49a;fill-opacity:1;fill-rule:nonzero;stroke:none"
             d="m 0,0 c 3.06,-14.468 15.898,-25.327 31.277,-25.327 15.378,0 28.217,10.859 31.276,25.327 z" /></g><g
           transform="translate(345.4736,52.8857)"
           id="g380"><path
             id="path382"
             style="fill:#e9b49a;fill-opacity:1;fill-rule:nonzero;stroke:none"
             d="M 0,0 V 0 C -6.937,0 -12.562,5.624 -12.562,12.562 V 63.96 H 12.562 V 12.562 C 12.562,5.624 6.937,0 0,0" /></g><g
           transform="translate(458.6982,52.8642)"
           id="g384"><path
             id="path386"
             style="fill:#eabea3;fill-opacity:1;fill-rule:nonzero;stroke:none"
             d="M 0,0 V 0 C -7.344,0 -13.297,5.953 -13.297,13.297 V 63.981 H 13.296 V 13.297 C 13.296,5.953 7.343,0 0,0" /></g><g
           transform="translate(356.6113,63.083)"
           id="g388"><path
             id="path390"
             style="fill:#e9b49a;fill-opacity:1;fill-rule:nonzero;stroke:none"
             d="m 0,0 v 0 c 0,-5.632 -4.565,-10.197 -10.197,-10.197 h -62.745 c 0,11.262 9.13,20.393 20.393,20.393 h 42.352 C -4.565,10.196 0,5.631 0,0" /></g><g
           id="g392"><g
             id="g394" /><g
             id="g406"><g
               style="opacity:0.33999604"
               id="g404"
               clip-path="url(#clipPath398)"><g
                 id="g402"
                 transform="translate(352.2739,116.8457)"><path
                   id="path400"
                   style="fill:#d98480;fill-opacity:1;fill-rule:nonzero;stroke:none"
                   d="m 0,0 v -53.278 c 0,-5.562 -4.251,-10.126 -9.681,-10.631 0.33,-0.03 0.663,-0.051 1,-0.051 h 3.761 c 5.899,0 10.681,4.782 10.681,10.682 V 0 Z" /></g></g></g></g><g
           transform="translate(356.9506,52.8642)"
           id="g408"><path
             id="path410"
             style="fill:#bcbec0;fill-opacity:1;fill-rule:nonzero;stroke:none"
             d="m 0,0 h -82.392 c -1.782,0 -3.24,1.458 -3.24,3.24 0,1.781 1.458,3.239 3.24,3.239 H 0 C 1.782,6.479 3.24,5.021 3.24,3.24 3.24,1.458 1.782,0 0,0" /></g><g
           transform="translate(472.1503,63.6738)"
           id="g412"><path
             id="path414"
             style="fill:#eabea3;fill-opacity:1;fill-rule:nonzero;stroke:none"
             d="m 0,0 v 0 c 0,-5.958 -4.83,-10.788 -10.788,-10.788 h -114.501 c 0,11.917 9.661,21.577 21.577,21.577 h 92.924 C -4.83,10.789 0,5.959 0,0" /></g><g
           transform="translate(373.2929,80.0039)"
           id="g416"><path
             id="path418"
             style="fill:#ea9431;fill-opacity:1;fill-rule:nonzero;stroke:none"
             d="M 0,0 C -8.016,0 -14.247,-1.598 -15.258,-8.21 -9.912,-5.204 -5.686,-5.567 0,-5.567 H 68.842 V 0 Z" /></g><g
           id="g420"><g
             id="g422" /><g
             id="g434"><g
               style="opacity:0.33999604"
               id="g432"
               clip-path="url(#clipPath426)"><g
                 id="g430"
                 transform="translate(471.9946,67.9873)"><path
                   id="path428"
                   style="fill:#d98480;fill-opacity:1;fill-rule:nonzero;stroke:none"
                   d="M 0,0 V 48.858 H -6.246 V -1.826 c 0,-1.302 -0.188,-2.559 -0.537,-3.747 -0.818,-2.776 -3.339,-4.794 -6.232,-4.804 h -0.045 -111.643 c -0.277,-1.534 -0.43,-3.11 -0.43,-4.725 h 107.888 c 0.226,-0.012 0.453,-0.021 0.683,-0.021 h 3.266 c 0.491,0 0.973,0.089 1.453,0.083 7.237,-0.083 11.999,3.839 11.999,10.727 0,0 -0.065,3.696 -0.156,4.313" /></g></g></g></g></g></g><g
       id="g436"><g
         clip-path="url(#clipPath442)"
         id="g438"><g
           transform="translate(196.8036,52.8642)"
           id="g444"><path
             id="path446"
             style="fill:#808285;fill-opacity:1;fill-rule:nonzero;stroke:none"
             d="m 0,0 h 63.904 c 1.789,0 3.24,1.45 3.24,3.24 0,1.789 -1.451,3.239 -3.24,3.239 H 0 C -1.789,6.479 -3.24,5.029 -3.24,3.24 -3.24,1.45 -1.789,0 0,0" /></g><g
           transform="translate(297.643,93.2099)"
           id="g448"><path
             id="path450"
             style="fill:#bcbec0;fill-opacity:1;fill-rule:nonzero;stroke:none"
             d="m 0,0 h -201.968 c -9.205,0 -16.736,7.531 -16.736,16.735 v 118.863 c 0,9.205 7.531,16.736 16.736,16.736 H 0 c 9.204,0 16.735,-7.531 16.735,-16.736 V 16.735 C 16.735,7.531 9.204,0 0,0" /></g><g
           transform="translate(300.2714,245.5439)"
           id="g452"><path
             id="path454"
             style="fill:#939598;fill-opacity:1;fill-rule:nonzero;stroke:none"
             d="M 0,0 H -8.648 C -0.89,0 5.458,-6.349 5.458,-14.107 v -124.121 c 0,-7.758 -6.348,-14.106 -14.106,-14.106 H 0 c 7.759,0 14.107,6.348 14.107,14.106 V -14.107 C 14.107,-6.349 7.759,0 0,0" /></g><g
           transform="translate(195.8305,52.8642)"
           id="g456"><path
             id="path458"
             style="fill:#939598;fill-opacity:1;fill-rule:nonzero;stroke:none"
             d="m 0,0 h -65.748 l 28.341,107.708 H 28.34 Z" /></g><g
           transform="translate(223.871,160.5722)"
           id="g460"><path
             id="path462"
             style="fill:#808285;fill-opacity:1;fill-rule:nonzero;stroke:none"
             d="m 0,0 -28.34,-107.708 7.032,0.021 23.985,93.062 z" /></g><g
           transform="translate(88.5937,141.457)"
           id="g464"><path
             id="path466"
             style="fill:none;stroke:#d1d3d4;stroke-width:7;stroke-linecap:round;stroke-linejoin:round;stroke-miterlimit:10;stroke-dasharray:none;stroke-opacity:1"
             d="m 0,0 v 87.104 c 0.077,4.162 3.512,7.473 7.674,7.397 h 72.75" /></g><g
           transform="translate(294.1938,207.0986)"
           id="g468"><path
             id="path470"
             style="fill:none;stroke:#a7a9ac;stroke-width:7;stroke-linecap:round;stroke-linejoin:miter;stroke-miterlimit:10;stroke-dasharray:none;stroke-opacity:1"
             d="m 0,0 v -96.349 c -0.076,-4.161 -3.512,-7.472 -7.673,-7.396 h -49.648" /></g><g
           id="g472"><g
             id="g474" /><g
             id="g486"><g
               style="opacity:0.42999303"
               id="g484"
               clip-path="url(#clipPath478)"><g
                 id="g482"
                 transform="translate(226.5483,145.9472)"><path
                   id="path480"
                   style="fill:#808285;fill-opacity:1;fill-rule:nonzero;stroke:none"
                   d="M 0,0 V -52.737 H -13.87 Z" /></g></g></g></g><g
           transform="translate(89.3207,67.0547)"
           id="g488"><path
             id="path490"
             style="fill:#569b5c;fill-opacity:1;fill-rule:nonzero;stroke:none"
             d="m 0,0 h -0.572 c -2.881,0 -5.237,2.356 -5.237,5.236 v 40.25 c 0,2.881 2.356,5.238 5.237,5.238 H 0 c 2.88,0 5.237,-2.357 5.237,-5.238 V 5.236 C 5.237,2.356 2.88,0 0,0" /></g><g
           transform="translate(76.7612,85.3965)"
           id="g492"><path
             id="path494"
             style="fill:#569b5c;fill-opacity:1;fill-rule:nonzero;stroke:none"
             d="m 0,0 h -0.376 c -1.895,0 -3.446,1.551 -3.446,3.445 v 14.377 c 0,1.896 1.551,3.447 3.446,3.447 H 0 c 1.895,0 3.445,-1.551 3.445,-3.447 V 3.445 C 3.445,1.551 1.895,0 0,0" /></g><g
           transform="translate(76.4365,85.3965)"
           id="g496"><path
             id="path498"
             style="fill:#569b5c;fill-opacity:1;fill-rule:nonzero;stroke:none"
             d="m 0,0 h 8.607 c 1.284,0 2.333,1.05 2.333,2.333 v 0.255 c 0,1.283 -1.049,2.333 -2.333,2.333 H 0 c -1.283,0 -2.333,-1.05 -2.333,-2.333 V 2.333 C -2.333,1.05 -1.283,0 0,0" /></g><g
           transform="translate(99.4609,94.6064)"
           id="g500"><path
             id="path502"
             style="fill:#569b5c;fill-opacity:1;fill-rule:nonzero;stroke:none"
             d="m 0,0 h 0.308 c 1.55,0 2.818,1.268 2.818,2.817 v 11.758 c 0,1.55 -1.268,2.819 -2.818,2.819 H 0 c -1.55,0 -2.818,-1.269 -2.818,-2.819 V 2.817 C -2.818,1.268 -1.55,0 0,0" /></g><g
           transform="translate(99.7265,94.6064)"
           id="g504"><path
             id="path506"
             style="fill:#569b5c;fill-opacity:1;fill-rule:nonzero;stroke:none"
             d="m 0,0 h -7.04 c -1.049,0 -1.908,0.858 -1.908,1.907 v 0.209 c 0,1.049 0.859,1.908 1.908,1.908 H 0 c 1.049,0 1.908,-0.859 1.908,-1.908 V 1.907 C 1.908,0.858 1.049,0 0,0" /></g><g
           transform="translate(101.3154,52.6308)"
           id="g508"><path
             id="path510"
             style="fill:#a97b50;fill-opacity:1;fill-rule:nonzero;stroke:none"
             d="m 0,0 h -24.562 c -2.609,0 -4.724,2.115 -4.724,4.725 v 16.618 c 0,2.609 2.115,4.724 4.724,4.724 H 0 c 2.61,0 4.725,-2.115 4.725,-4.724 V 4.725 C 4.725,2.115 2.61,0 0,0" /></g><g
           transform="translate(72.0292,60.1279)"
           id="g512"><path
             id="path514"
             style="fill:#603912;fill-opacity:1;fill-rule:nonzero;stroke:none"
             d="m 0,0 v -3.515 c 0,-2.199 1.783,-3.982 3.982,-3.982 h 26.047 c 2.199,0 3.982,1.783 3.982,3.982 V 0 Z" /></g></g></g></g></svg>